 <svg width="640" height="100" className="logo" viewBox="0 0 640 480">
    <defs>
  <linearGradient id="svg_13" spreadMethod="pad" x1="0" x2="1" y1="0" y2="0">
   <stop offset="0" stop-color="#7f003f"/>
   <stop offset="1" stop-color="#80ffc0"/>
  </linearGradient>
 </defs>
 <g class="layer">
  <title>Layer 1</title>
  <line fill="none" id="svg_2" stroke="#000000" stroke-width="2" x1="109" x2="300" y1="175" y2="324"/>
  <line fill="none" id="svg_3" stroke="#000000" stroke-width="2" x1="132.66667" x2="316" y1="156" y2="296.66667"/>
  <line fill="none" id="svg_4" stroke="#000000" stroke-width="2" x1="299.33333" x2="335.33333" y1="324" y2="331.33333"/>
  <line fill="none" id="svg_5" stroke="#000000" stroke-width="2" x1="315.33333" x2="335.33333" y1="296.66667" y2="332"/>
  <path d="m109.33334,176c0,-1.98974 0,-2.83192 0,-3.68043c0,-0.89004 0.10865,-1.75833 0.68607,-2.43535c0.52341,-0.61371 1.33199,-0.98105 1.37215,-1.75544c0.0456,-0.87929 0.82604,-1.30692 1.17729,-1.86156c0.45629,-0.72048 1.0921,-0.97784 1.55271,-1.55791c0.57453,-0.72352 1.08682,-0.75331 1.86977,-1.00464c0.93044,-0.29868 1.74007,-0.83473 2.22174,-1.48393c0.5067,-0.68294 1.08834,-0.81569 1.70317,-1.34122c0.64029,-0.54728 0.71483,-1.57777 1.4993,-2.02501c0.78454,-0.4473 1.54393,-0.67851 2.30063,-1.19402c0.63477,-0.43246 1.09844,-1.1148 1.88018,-1.43359c0.84512,-0.34463 1.77763,-0.22754 2.67993,-0.22754c0.95318,0 1.84199,0 2.74428,0l0.95318,0l0.92803,0" fill="none" id="svg_7" stroke="#000000" stroke-width="2"/>
  <path d="m314.66666,295.33334c-1.14133,0.64011 -1.71863,1.13523 -2.74933,1.41892c-0.89551,0.24649 -1.57944,0.43181 -2.34888,0.8815c-0.71219,0.41624 -0.67377,1.82544 -1.3089,2.2064c-0.82059,0.4922 -1.8642,0.22442 -2.23556,1.08056c-0.35929,0.82824 -0.85886,1.36614 -1.35743,2.10404c-0.5039,0.74581 -0.89193,1.4391 -1.33334,2.25728c-0.36639,0.67917 -1.33124,0.71299 -1.76477,1.37803c-0.46808,0.71802 -0.9018,1.46531 -0.9018,2.43151c0,0.97119 0.14499,2.11093 -0.18933,2.79718c-0.34457,0.70731 -0.94464,1.38406 -1.14398,2.16511c-0.2478,0.97099 0,1.95682 0,2.95171c0,1.06864 0.00006,2.01503 0,3.00992c-0.00006,1.0685 -0.47735,1.71763 -0.66669,2.67566l0,0.9623l0,0.91099" fill="none" id="svg_9" stroke="#000000" stroke-width="2"/>
  <path d="m328.66666,321.33334c-3.07029,2.8599 -3.46682,3.73935 -4.08719,4.3572l-0.24613,0.91178l0,0.92076l0,1.04348" fill="none" id="svg_10" stroke="#000000" stroke-width="2"/>
  <path d="m314.66666,352.00071c1.1792,0 1.91513,0 2.6176,0c0.84507,0 1.44906,0.03445 2.09987,-0.05153c0.84394,-0.11149 1.60809,-0.39579 2.28977,-0.85434c0.5844,-0.39311 1.24199,-0.83225 1.94788,-1.29729c0.44545,-0.29348 1.26695,-0.72733 2.01846,-0.95015c0.55367,-0.16416 1.41098,-0.56462 2.02736,-0.81077c0.73133,-0.29204 1.46207,-0.26329 2.25803,-0.26329c0.72079,0 1.32296,-0.37108 1.81612,-0.81641c0.63653,-0.57479 1.38635,-1.04509 1.45487,-1.81494c0.07036,-0.79042 0,-1.59926 0,-2.34005c0,-0.85675 0,-1.67487 0,-2.41564c0,-0.88113 0.02029,-1.73505 0.66559,-2.01869c0.70794,-0.31117 1.26893,-0.75017 1.88464,-1.15016c0.63035,-0.4095 1.38869,-0.33895 2.40981,-0.61648c0.32524,-0.08838 1.04297,-0.34166 1.84833,-0.62909c0.42931,-0.15321 1.32641,-0.47878 2.26947,-0.78003c0.47976,-0.15326 1.48446,-0.43867 2.01995,-0.58137c0.56485,-0.1505 1.16704,-0.30343 1.8117,-0.46562c0.69324,-0.17444 2.25155,-0.56274 3.12624,-0.78368c0.93568,-0.23636 1.92516,-0.48868 2.96144,-0.7573c1.07728,-0.27927 2.18811,-0.57131 3.32529,-0.87687c1.1583,-0.31123 3.50783,-0.96141 4.68508,-1.29854c1.17061,-0.33522 2.32468,-0.67381 3.45499,-1.01003c1.09964,-0.32709 2.15942,-0.64739 3.17201,-0.95568c0.95794,-0.29166 2.67716,-0.81821 3.42512,-1.05031c0.67974,-0.21093 1.30117,-0.40597 1.86902,-0.60692c0.53136,-0.18804 1.03189,-0.38454 1.50513,-0.60694c0.46951,-0.22064 1.40365,-0.76198 1.88472,-1.08976c0.50756,-0.34581 1.02534,-0.73602 1.55821,-1.1586c0.55665,-0.44143 1.12504,-0.91759 1.70981,-1.41948c0.60572,-0.51986 1.8619,-1.63086 2.51473,-2.21336c0.66561,-0.5939 1.33682,-1.19653 2.0105,-1.79996c0.67003,-0.60017 1.33111,-1.19196 1.98019,-1.76734c0.62895,-0.55754 1.81198,-1.58988 2.35881,-2.0539c0.51493,-0.43693 1.0074,-0.84538 1.47904,-1.2347c0.45525,-0.37581 0.90075,-0.74044 1.33754,-1.10425c0.4362,-0.36331 1.31877,-1.11865 1.77176,-1.52155c0.46496,-0.41354 0.93396,-0.84142 1.40827,-1.27547c0.47728,-0.43677 0.95311,-0.87538 1.42851,-1.30808c0.46943,-0.42725 1.3866,-1.24476 1.83154,-1.62662c0.43034,-0.36936 0.85119,-0.72034 1.25752,-1.06076c0.39307,-0.32931 0.77367,-0.64744 1.13622,-0.96296c0.35092,-0.30539 1.00316,-0.91018 1.30037,-1.21565c0.2882,-0.29619 0.55681,-0.59442 0.81197,-0.88685c0.24604,-0.28195 0.47717,-0.55851 0.70077,-0.82163c0.21365,-0.2514 0.61685,-0.71094 0.81418,-0.91029c0.18915,-0.19108 0.38242,-0.36726 0.58286,-0.52993c0.20276,-0.16454 0.41908,-0.32355 0.65361,-0.4756c0.80487,-0.52182 1.48171,-0.88817 1.84794,-1.08702c0.76598,-0.41589 1.15619,-0.63069 1.95312,-0.99395c1.10389,-0.50316 1.77029,-0.72717 2.36033,-0.88776c0.72581,-0.19755 1.62453,-0.47408 2.22762,0.04893c0.48486,0.42048 0.89615,1.28408 1.19994,1.98927c0.32411,0.75228 0.19849,1.6201 0.50473,2.26288c0.3607,0.75705 1.11409,0.97497 1.79982,1.41093c0.52313,0.3326 1.30325,0.82092 1.93023,1.18265c0.41941,0.24198 1.21894,0.7319 1.93019,1.18268c0.6863,0.43496 1.34726,0.65703 2.00086,1.05504c0.66299,0.40369 1.40421,1.01675 2.10925,0.78174c0.679,-0.22633 1.35296,-0.60379 2.04803,-0.60379c0.67632,0 1.33046,0.04931 2.21312,-0.0136c0.74896,-0.05339 1.38522,-0.2195 2.14544,-0.48968c0.93123,-0.33094 1.44385,-0.5806 2.00497,-0.83258c0.60489,-0.27164 1.24981,-0.57272 1.93806,-0.895c0.73203,-0.3428 2.32681,-1.09167 3.19055,-1.49166c0.89941,-0.41653 1.82745,-0.84248 2.77527,-1.27546c0.95853,-0.43786 1.92022,-0.87482 2.87636,-1.30807c0.94177,-0.42672 2.7498,-1.24338 3.60212,-1.62684c0.82101,-0.36939 1.61938,-0.72723 2.40467,-1.07345c0.77855,-0.34324 1.56018,-0.68266 2.35416,-1.0191c0.81194,-0.34404 2.53038,-1.04813 3.45077,-1.41445c0.9573,-0.38101 1.94737,-0.7677 2.96144,-1.16496c1.03207,-0.40433 2.07605,-0.8129 3.12313,-1.23017c1.04623,-0.41691 3.10428,-1.25917 4.10224,-1.6852c0.97704,-0.41711 1.92755,-0.83557 2.85195,-1.24922c0.899,-0.40229 1.76859,-0.79904 2.60935,-1.18394c0.81083,-0.37122 2.33603,-1.07088 3.0494,-1.39295c0.67774,-0.30597 1.32008,-0.59234 1.92542,-0.86055c0.56677,-0.25113 1.0946,-0.48307 1.5818,-0.69754c0.44566,-0.19619 1.20824,-0.53335 1.52309,-0.67677c0.27581,-0.12565 0.51673,-0.2383 0.72689,-0.34241c0.18679,-0.09256 0.35346,-0.1803 0.50452,-0.26633c0.14315,-0.08153 0.41908,-0.25467 0.56151,-0.34885c0.14733,-0.09742 0.29636,-0.19938 0.44558,-0.30437c0.14892,-0.10481 0.29467,-0.21024 0.43542,-0.31527c0.13551,-0.10112 0.38068,-0.29231 0.48668,-0.38116c0.09686,-0.08117 0.20785,-0.13447 0.32603,-0.30235c0.43985,-0.62475 0.64173,-1.39795 0.80917,-2.24706c0.14045,-0.71227 0.32629,-1.61377 0.06745,-2.36331c-0.22589,-0.65405 -1.11412,-0.53545 -1.7467,-0.53545c-0.69316,0 -1.70174,0 -2.36806,0c-0.76714,0 -1.2966,-0.34758 -1.04891,-1.01941c0.28853,-0.7826 0.5502,-1.40314 0.84749,-1.8963c0.59101,-0.98037 0.89126,-1.3356 1.53032,-2.14507c0.3487,-0.44168 0.72655,-0.89246 1.12527,-1.35427c0.41126,-0.47635 1.28438,-1.43869 1.74125,-1.91844c0.45953,-0.48252 1.39424,-1.4204 1.862,-1.8701c0.45769,-0.43999 0.9071,-0.86122 1.34931,-1.25463c0.81986,-0.72943 1.55911,-1.34427 2.23708,-1.82704c0.59494,-0.42364 1.15894,-0.73918 1.92739,-1.12217l0.69823,-0.2781l0.58708,-0.19113l0.80474,-0.04882" fill="none" id="svg_11" stroke="#000000" stroke-width="2"/>
  <line fill="none" id="svg_1" stroke="#000000" stroke-width="2" x1="108.31252" x2="297.31251" y1="174.27549" y2="320.27549"/>
  <line fill="none" id="svg_8" stroke="#000000" stroke-width="2" x1="129.31252" x2="313.31252" y1="155.27549" y2="297.27549"/>
  <line fill="none" id="svg_12" stroke="#000000" stroke-width="2" x1="298.31252" x2="334.31252" y1="320.27549" y2="329.27549"/>
  <line fill="none" id="svg_16" stroke="#000000" stroke-width="2" x1="312.31252" x2="332.31252" y1="295.27549" y2="330.27549"/>
  <path d="m130.31251,157.27548c-2.02623,0 -2.88535,0 -3.97878,0c-0.97167,0 -1.96164,-0.02102 -2.65252,0.45169c-0.65985,0.45148 -1.51079,0.84087 -2.07615,1.55502c-0.50713,0.64059 -0.53519,1.34785 -1.17632,1.92541c-0.54431,0.49034 -1.1214,0.89569 -1.72101,1.48818c-0.55126,0.54471 -0.35608,1.544 -1.03448,1.80676c-0.95222,0.36882 -1.6757,0.47419 -2.19865,0.91302c-0.58068,0.48728 -0.50421,1.53754 -1.31005,1.78749c-0.8975,0.27839 -1.39086,0.45158 -2.11115,0.91302c-0.74205,0.47537 -1.24605,1.05522 -1.63978,1.75918c-0.40195,0.71864 -1.08034,1.31182 -1.10024,2.12129c-0.02056,0.83638 0,1.63016 0,2.44321l0,0.72269l0,0.81305" fill="none" id="svg_17" stroke="#000000" stroke-width="2"/>
  <path d="m308.31253,297.27548c-1.83334,0.16669 -2.28397,0.7489 -3.10001,1.2215c-0.66656,0.38602 -1.57065,0.98495 -1.89999,1.79935c-0.29263,0.72354 -0.05719,1.67917 -0.5,2.47916c-0.44284,0.80002 -0.39706,1.72513 -0.66669,2.66669c-0.19589,0.68411 -0.64301,1.34363 -1.22266,2.19733c-0.49634,0.73102 -0.29758,1.80807 -0.832,2.51465c-0.48517,0.64145 -1.27728,0.97256 -1.97733,1.40533c-0.81158,0.50174 -0.80133,1.4205 -0.80133,2.31601c0,0.87918 0,1.836 0,2.70001l0,0.89865" fill="none" id="svg_18" stroke="#000000" stroke-width="2"/>
  <path d="m321.65472,316.27548c-0.9527,1.43045 -1.22145,2.2161 -1.74513,2.87674c-0.57103,0.72036 -1.56937,1.24668 -1.57048,2.02895c-0.00106,0.77757 -0.41511,2.04304 0.8289,2.05267c1.35911,0.01051 2.28556,-0.83793 3.67366,-0.91253l0.46864,-0.62604l0.00223,-0.79857" fill="none" id="svg_20" stroke="#000000" stroke-width="2"/>
  <path d="m313.31253,354.27548c1.63746,-0.02128 2.58585,-0.16878 3.48213,-0.36059c0.69804,-0.14937 1.43064,-0.34277 2.90733,-0.53782c0.67579,-0.08927 1.61657,-0.03407 2.5736,-0.29447c0.8757,-0.23827 1.70605,-0.77937 2.59377,-0.84115c0.96982,-0.06749 1.88778,-0.01092 2.71512,-0.01092c0.94596,0 1.54278,-0.34926 2.10287,-1.02247c0.4756,-0.57168 0.16727,-1.63596 0.17239,-2.53487c0.00552,-0.96746 0.7504,-1.42612 1.02315,-2.1794c0.31003,-0.85619 0.10488,-1.84627 0.60535,-2.46894c0.52146,-0.64875 1.07144,-0.99657 1.9912,-0.99657c0.91973,0 1.68761,-0.36502 2.5855,-0.85204c0.68671,-0.37247 0.58511,-1.43052 1.20656,-2.04494c0.62147,-0.61446 1.68001,-0.27216 2.47933,-0.75799c0.73775,-0.44842 1.69194,-0.43491 2.62255,-0.43491c0.93096,0 1.73739,-0.00777 2.63549,-0.36059c0.82918,-0.32576 1.79183,-0.58893 2.60463,-0.83229c0.86926,-0.26027 1.71731,-0.80839 2.52759,-0.85207c0.9184,-0.04952 1.9324,0 2.84042,0c0.87166,0 2.00701,0.3262 2.64635,-0.29175c0.64344,-0.62191 0.79143,-1.47086 1.52372,-2.15125c0.6964,-0.64703 1.66577,-0.62441 2.49312,-0.62441c0.94596,0 1.84589,0.11015 2.63909,-0.05844c1.07889,-0.22931 1.91041,-0.65761 2.61328,-1.19031c0.66067,-0.50072 1.21274,-1.11146 1.94272,-1.45807c0.87513,-0.41554 2.04322,-0.04852 2.83667,-0.38187c0.75056,-0.31534 1.40738,-0.98278 2.41311,-1.00119c0.83237,-0.01523 1.15555,-0.77646 1.93518,-1.01785c0.88466,-0.27393 1.58447,-0.71362 2.46087,-1.02572c0.89129,-0.3174 1.67777,-0.23605 2.1539,-1.02384c0.44464,-0.73565 1.41208,-0.95579 2.20629,-1.38306c0.86964,-0.46786 1.82806,-0.45042 2.48208,-0.77877c0.78247,-0.39285 1.00393,-1.3605 1.84501,-2.04391c0.6543,-0.53167 1.8208,-0.61062 2.51518,-1.19699c0.62646,-0.52902 1.43399,-0.91906 2.0298,-1.63066c0.52805,-0.63065 0.91809,-1.47427 1.10054,-2.41252c0.1923,-0.98887 -0.27506,-2.0871 0.28822,-2.69968c0.65603,-0.71346 1.53022,-0.84324 2.24196,-1.5446c0.65884,-0.64925 1.30503,-1.2574 1.76901,-1.97542c0.43289,-0.66994 0.67112,-1.73937 1.01782,-2.533c0.3728,-0.85338 1.24929,-1.11702 2.18837,-1.22969c0.95113,-0.11414 1.5655,-0.75568 1.80711,-1.68386c0.20474,-0.78657 0.92342,-1.25584 1.58422,-1.91473c0.65742,-0.65552 0.77155,-1.43046 1.67625,-1.51258c0.94264,-0.08556 1.64841,-0.62619 2.19408,-1.47492c0.44754,-0.69615 1.05165,-1.33763 1.83933,-1.76274c0.77079,-0.416 1.55111,-0.8414 2.48208,-0.85207c1.02309,-0.0117 1.94979,0 2.79232,0c0.93081,0 1.7348,0.12709 2.5855,0.58759c0.80709,0.43691 1.85729,0.3086 2.44486,0.86979c0.52067,0.49729 1.56326,0.65699 2.01737,1.52416c0.37709,0.72011 -0.06587,1.73484 0.08828,2.62077c0.1497,0.86043 1.02609,1.42955 1.86155,1.55365c0.93964,0.13957 1.46366,0.96156 2.37865,1.02381c0.9286,0.06319 1.75815,0 2.68893,0c0.93077,0 1.86158,0 2.69357,0c1.05146,0 1.89986,0.0738 2.83752,0c0.74497,-0.05863 1.6464,-0.73668 2.19922,-1.17515c0.81308,-0.64488 1.66634,-0.83441 2.56275,-1.23958c0.75397,-0.3408 1.47981,-1.17044 2.00291,-1.81694c0.59622,-0.73687 1.45835,-1.0519 2.11666,-1.50506c0.87488,-0.60229 1.47953,-1.18744 2.49467,-1.41595c0.95984,-0.21605 1.86821,-0.01389 2.60188,-0.59218c0.68617,-0.54088 1.13289,-1.2423 1.96722,-1.75865c0.93043,-0.57583 1.83021,-0.65976 2.42467,-0.73618c1.22969,-0.15808 2.15299,-0.34009 2.73823,-0.49626c0.79945,-0.21334 1.94474,-0.47183 2.96092,-0.51139c0.88261,-0.03439 1.82232,-0.356 2.51449,-0.66173c0.89577,-0.39569 1.67597,-0.34817 2.71168,-0.79547c0.84433,-0.36464 1.65918,-0.57692 2.6627,-0.58759c0.78648,-0.00836 1.64447,0.21743 2.69306,0c0.88848,-0.18422 1.59789,-0.91111 2.53036,-1.02247c0.82602,-0.09867 1.52842,-0.62248 2.40055,-0.89841c0.81807,-0.25883 1.52779,-0.8663 2.17612,-1.14654c0.87876,-0.37984 1.47852,-0.45816 1.63317,-1.3292c0.16873,-0.95036 0.75984,-1.61465 1.00333,-2.57119c0.22046,-0.86599 0.79834,-1.5367 1.35414,-2.14854c0.59301,-0.65281 1.16919,-1.19434 1.82913,-1.77026c0.61576,-0.53735 1.4308,-1.84618 2.01396,-1.29581c0.68425,0.64578 -0.01979,1.75344 0,2.68842c0.01862,0.8799 0.88545,1.26055 1.0342,0.34561c0.14016,-0.86212 0,-1.79204 0,-2.67547c0,-0.8916 0.25391,-1.90185 -0.00139,-2.78112c-0.22866,-0.78757 -1.38283,-0.65371 -2.04082,-1.16697c-0.68895,-0.53742 -1.05806,-1.24948 -1.0604,-2.23444c-0.00215,-0.90933 -0.23942,-2.00007 0.29507,-2.44438c0.66812,-0.55539 1.4996,-0.73762 2.4483,-0.96727c0.87804,-0.21256 1.71873,-0.53068 2.34349,-1.27946c0.5664,-0.67886 1.44147,-0.62678 2.30558,-0.90521c0.88725,-0.28585 0.69176,-1.44365 1.17623,-2.16221c0.54825,-0.81319 1.60003,-0.57249 2.51244,-0.81934c0.8353,-0.22601 1.53473,-0.93657 2.27661,-1.31285l0.52676,-0.70619l0.58328,-0.61346l0.46193,-0.43491" fill="none" id="svg_22" stroke="#000000" stroke-width="2"/>
  <rect fill="url(#svg_13)" height="247.99999" id="svg_28" opacity="0.71" stroke="#000000" stroke-linejoin="round" stroke-width="0" transform="rotate(10 297.813 234.275)" width="404.99998" x="95.31255" y="110.27549"/>
 </g>
</svg>