
<svg width="183" height="41" viewBox="0 0 183 41" fill="none" xmlns="http://www.w3.org/2000/svg">
<path d="M1.79075 12.6933C1.22186 11.84 0.937417 10.6453 0.937417 9.10933C0.937417 7.57333 1.22186 6.29333 1.79075 5.26933C2.41653 4.18844 3.09919 3.30667 3.83875 2.624C4.57831 1.88445 5.28942 1.31556 5.97208 0.917336C6.65475 0.519112 7.05297 0.32 7.16675 0.32C7.67875 0.32 8.07697 0.661334 8.36142 1.344C6.65475 2.31111 5.65919 3.16444 5.37475 3.904C5.09031 4.64355 4.94808 5.29778 4.94808 5.86667C4.94808 6.66311 5.20408 7.40267 5.71608 8.08533C6.28497 8.71111 6.68319 9.16622 6.91075 9.45067C7.19519 9.73511 7.33742 10.1618 7.33742 10.7307C7.33742 11.2427 6.99608 11.8116 6.31342 12.4373C5.63075 13.0062 5.00497 13.2907 4.43608 13.2907C3.18453 13.2907 2.30275 13.0916 1.79075 12.6933ZM34.1266 12.608C34.1266 7.60178 32.5621 5.09867 29.4333 5.09867C28.7506 5.09867 28.1248 5.12711 27.5559 5.184C27.0439 5.24089 26.731 5.44 26.6172 5.78133C26.3897 6.23645 26.2759 7.37422 26.2759 9.19467V19.0933H29.2626C30.6848 19.0933 31.851 18.5529 32.7612 17.472C33.6715 16.3342 34.1266 14.7129 34.1266 12.608ZM22.4359 2.96533L31.0546 2.79467C34.0697 2.79467 36.6297 3.47733 38.7346 4.84267C41.2377 6.43556 42.4893 8.73956 42.4893 11.7547C42.4893 14.5422 40.9817 16.8178 37.9666 18.5813C37.2839 18.9796 36.7719 19.2356 36.4306 19.3493C36.1461 19.4631 36.0039 19.5484 36.0039 19.6053C36.0039 19.6622 36.1746 19.7191 36.5159 19.776C36.9141 19.8329 37.6252 20.0889 38.6493 20.544C39.7301 20.9422 40.7257 21.568 41.6359 22.4213C43.9684 24.4124 45.1346 26.6596 45.1346 29.1627C45.1346 31.04 44.5941 32.7751 43.5133 34.368C42.4324 35.9609 41.0386 37.2693 39.3319 38.2933C37.6253 39.2604 35.7479 39.8293 33.6999 40C31.6519 40.1707 29.9452 40.2276 28.5799 40.1707C27.2146 40.1707 25.9346 40.1707 24.7399 40.1707C21.2697 40.1707 17.7995 40.1707 14.3292 40.1707C14.2155 40 14.1586 39.6587 14.1586 39.1467C14.1586 38.6347 14.2155 38.2933 14.3292 38.1227C14.5568 38.1227 15.0404 38.0658 15.7799 37.952C17.0315 37.7813 17.771 37.4969 17.9986 37.0987C18.283 36.416 18.4253 34.6524 18.4253 31.808V11.072C18.4253 8.34133 18.283 6.57778 17.9986 5.78133C17.6004 5.21245 16.3772 4.928 14.3292 4.928C14.2155 4.70044 14.1586 4.33067 14.1586 3.81867C14.1586 3.30667 14.2155 2.96533 14.3292 2.79467C15.6377 2.90844 17.003 2.96533 18.4253 2.96533H22.4359ZM26.2759 33.856C26.2759 35.6196 26.4181 36.7004 26.7026 37.0987C26.987 37.44 27.4706 37.6391 28.1532 37.696C28.8359 37.7529 29.5186 37.7813 30.2013 37.7813C30.9408 37.7813 31.6519 37.6676 32.3346 37.44C33.0741 37.1556 33.7284 36.7004 34.2972 36.0747C35.6626 34.7662 36.3452 32.7751 36.3452 30.1013C36.3452 26.176 35.0937 23.5022 32.5906 22.08C31.6804 21.568 30.571 21.312 29.2626 21.312H26.2759V33.856ZM55.5201 39.8293C53.1876 39.8293 50.5992 39.9716 47.7548 40.256C47.641 40.0853 47.5841 39.744 47.5841 39.232C47.5841 38.72 47.641 38.3502 47.7548 38.1227C48.9494 38.1227 49.8312 38.0089 50.4001 37.7813C50.969 37.4969 51.3103 37.2693 51.4241 37.0987C51.7085 36.416 51.8507 34.6524 51.8507 31.808V24.4693C51.8507 24.0142 51.7939 23.3316 51.6801 22.4213C51.5663 21.5111 51.4525 20.9422 51.3387 20.7147C50.9405 19.9751 49.7459 19.6053 47.7548 19.6053C47.641 19.5484 47.5841 19.264 47.5841 18.752C47.641 18.1831 47.7263 17.8987 47.8401 17.8987C50.0019 17.728 52.1067 17.3298 54.1547 16.704C56.2027 16.0213 57.7672 15.424 58.8481 14.912C59.0187 14.9689 59.2179 15.1111 59.4454 15.3387C59.673 15.5662 59.7583 15.7369 59.7014 15.8507C59.7014 15.9644 59.673 16.2204 59.6161 16.6187C59.5592 17.0169 59.5023 17.472 59.4454 17.984C59.3885 18.4391 59.3316 18.8942 59.2747 19.3493C59.2179 19.8044 59.1894 20.1173 59.1894 20.288C59.1894 20.4018 59.2463 20.4871 59.3601 20.544C59.4739 20.544 59.5308 20.5156 59.5308 20.4587C60.5547 18.752 61.4081 17.5573 62.0907 16.8747C63.5699 15.5093 65.0774 14.8267 66.6134 14.8267C68.3201 14.8267 69.4863 15.1396 70.1121 15.7653C70.5672 16.448 70.7948 17.216 70.7948 18.0693C70.7948 18.8658 70.7094 19.5484 70.5387 20.1173C70.3681 20.6293 70.1121 21.1129 69.7708 21.568C69.0881 22.5351 68.2916 23.0187 67.3814 23.0187C66.8694 23.0187 66.4143 22.848 66.0161 22.5067C65.6748 22.1653 65.3334 21.8524 64.9921 21.568C64.7076 21.2836 64.3947 21.0276 64.0534 20.8C63.769 20.5156 63.3707 20.3733 62.8587 20.3733C62.3467 20.3733 61.8632 20.5724 61.4081 20.9707C60.953 21.312 60.5547 21.7387 60.2134 22.2507C59.5307 23.2747 59.1894 24.1849 59.1894 24.9813V31.808C59.1894 34.6524 59.2748 36.3022 59.4454 36.7573C59.6161 37.1556 59.8436 37.44 60.1281 37.6107C60.4125 37.7244 60.7254 37.8382 61.0667 37.952C61.6356 38.0658 62.233 38.1227 62.8587 38.1227C62.9725 38.3502 63.0294 38.72 63.0294 39.232C63.0294 39.744 62.9725 40.0853 62.8587 40.256C60.0143 39.9716 57.5681 39.8293 55.5201 39.8293ZM80.3266 24.128C80.4404 24.128 80.8101 24.128 81.4359 24.128C82.1186 24.0711 82.8581 24.0142 83.6546 23.9573C85.475 23.9004 86.7835 23.8151 87.5799 23.7013C88.0919 23.6444 88.3479 23.3316 88.3479 22.7627C88.3479 22.1369 88.291 21.4827 88.1772 20.8C88.0635 20.1173 87.8644 19.52 87.5799 19.008C86.9541 17.7564 86.1292 17.1307 85.1052 17.1307C84.1381 17.1307 83.3701 17.4151 82.8012 17.984C82.2324 18.496 81.7488 19.1218 81.3506 19.8613C80.6679 21.3404 80.3266 22.7627 80.3266 24.128ZM93.8092 25.664C90.3959 25.9484 85.9017 26.176 80.3266 26.3467C80.3266 29.8169 81.2937 32.3769 83.2279 34.0267C84.707 35.2213 86.2999 35.8187 88.0066 35.8187C89.7701 35.8187 91.1355 35.5058 92.1026 34.88C93.0697 34.2542 93.8661 33.6284 94.4919 33.0027C94.947 33.1164 95.1746 33.4293 95.1746 33.9413C95.1746 34.4533 95.0608 34.88 94.8333 35.2213C94.6626 35.5058 94.2928 35.9609 93.7239 36.5867C93.155 37.1556 92.4439 37.7244 91.5906 38.2933C89.4288 39.7724 87.3524 40.512 85.3612 40.512C83.3701 40.512 81.6635 40.256 80.2413 39.744C78.819 39.1751 77.5675 38.3787 76.4866 37.3547C74.1541 35.136 72.9879 32.2631 72.9879 28.736C72.9879 25.0951 74.2395 21.9093 76.7426 19.1787C79.4164 16.2773 82.3177 14.8267 85.4466 14.8267C88.803 14.8267 91.363 15.8222 93.1266 17.8133C94.6057 19.4062 95.3452 21.2551 95.3452 23.36C95.3452 23.9858 95.203 24.5262 94.9186 24.9813C94.6341 25.4364 94.2644 25.664 93.8092 25.664ZM104.827 24.128C104.94 24.128 105.31 24.128 105.936 24.128C106.619 24.0711 107.358 24.0142 108.155 23.9573C109.975 23.9004 111.283 23.8151 112.08 23.7013C112.592 23.6444 112.848 23.3316 112.848 22.7627C112.848 22.1369 112.791 21.4827 112.677 20.8C112.563 20.1173 112.364 19.52 112.08 19.008C111.454 17.7564 110.629 17.1307 109.605 17.1307C108.638 17.1307 107.87 17.4151 107.301 17.984C106.732 18.496 106.249 19.1218 105.851 19.8613C105.168 21.3404 104.827 22.7627 104.827 24.128ZM118.309 25.664C114.896 25.9484 110.402 26.176 104.827 26.3467C104.827 29.8169 105.794 32.3769 107.728 34.0267C109.207 35.2213 110.8 35.8187 112.507 35.8187C114.27 35.8187 115.635 35.5058 116.603 34.88C117.57 34.2542 118.366 33.6284 118.992 33.0027C119.447 33.1164 119.675 33.4293 119.675 33.9413C119.675 34.4533 119.561 34.88 119.333 35.2213C119.163 35.5058 118.793 35.9609 118.224 36.5867C117.655 37.1556 116.944 37.7244 116.091 38.2933C113.929 39.7724 111.852 40.512 109.861 40.512C107.87 40.512 106.163 40.256 104.741 39.744C103.319 39.1751 102.067 38.3787 100.987 37.3547C98.6541 35.136 97.4879 32.2631 97.4879 28.736C97.4879 25.0951 98.7395 21.9093 101.243 19.1787C103.916 16.2773 106.818 14.8267 109.947 14.8267C113.303 14.8267 115.863 15.8222 117.627 17.8133C119.106 19.4062 119.845 21.2551 119.845 23.36C119.845 23.9858 119.703 24.5262 119.419 24.9813C119.134 25.4364 118.764 25.664 118.309 25.664ZM123.268 38.1227C123.723 37.0987 123.951 34.88 123.951 31.4667V8.59733C123.951 7.34578 123.865 6.54933 123.695 6.208C123.524 5.80978 123.296 5.55378 123.012 5.44C122.727 5.32622 122.386 5.24089 121.988 5.184C121.135 4.95645 120.537 4.84267 120.196 4.84267C120.082 4.84267 120.025 4.58667 120.025 4.07467C119.968 3.50578 120.025 3.16444 120.196 3.05067C123.382 2.76622 125.942 2.33956 127.876 1.77067C129.867 1.14489 130.919 0.832001 131.033 0.832001C131.431 0.945778 131.716 1.28711 131.887 1.856C131.488 3.44889 131.289 5.32622 131.289 7.488V16.6187C131.289 16.7324 131.289 16.9316 131.289 17.216C131.346 17.4436 131.46 17.5004 131.631 17.3867C131.858 17.216 132.171 16.9884 132.569 16.704C133.024 16.4196 133.508 16.1067 134.02 15.7653C135.158 15.0827 136.381 14.7413 137.689 14.7413C138.998 14.7413 140.363 15.0542 141.785 15.68C143.207 16.2489 144.459 17.0738 145.54 18.1547C147.759 20.3733 148.868 23.2178 148.868 26.688C148.868 30.9547 147.275 34.368 144.089 36.928C141.302 39.2604 137.86 40.4267 133.764 40.4267C132.285 40.4267 130.919 40.2276 129.668 39.8293C128.416 39.3742 127.364 39.1467 126.511 39.1467C125.657 39.1467 125.031 39.2889 124.633 39.5733C124.519 39.5733 124.263 39.4027 123.865 39.0613C123.467 38.6631 123.268 38.3502 123.268 38.1227ZM134.361 18.9227C133.223 18.9227 132.256 19.3209 131.46 20.1173C131.346 20.2311 131.289 20.4018 131.289 20.6293V34.4533C131.289 35.4204 131.602 36.2453 132.228 36.928C132.911 37.6107 133.764 37.952 134.788 37.952C135.812 37.952 136.665 37.696 137.348 37.184C138.087 36.6151 138.713 35.904 139.225 35.0507C140.249 33.2302 140.761 31.2107 140.761 28.992C140.761 25.1236 140.135 22.4782 138.884 21.056C137.632 19.6338 136.125 18.9227 134.361 18.9227ZM157.827 24.128C157.94 24.128 158.31 24.128 158.936 24.128C159.619 24.0711 160.358 24.0142 161.155 23.9573C162.975 23.9004 164.283 23.8151 165.08 23.7013C165.592 23.6444 165.848 23.3316 165.848 22.7627C165.848 22.1369 165.791 21.4827 165.677 20.8C165.563 20.1173 165.364 19.52 165.08 19.008C164.454 17.7564 163.629 17.1307 162.605 17.1307C161.638 17.1307 160.87 17.4151 160.301 17.984C159.732 18.496 159.249 19.1218 158.851 19.8613C158.168 21.3404 157.827 22.7627 157.827 24.128ZM171.309 25.664C167.896 25.9484 163.402 26.176 157.827 26.3467C157.827 29.8169 158.794 32.3769 160.728 34.0267C162.207 35.2213 163.8 35.8187 165.507 35.8187C167.27 35.8187 168.635 35.5058 169.603 34.88C170.57 34.2542 171.366 33.6284 171.992 33.0027C172.447 33.1164 172.675 33.4293 172.675 33.9413C172.675 34.4533 172.561 34.88 172.333 35.2213C172.163 35.5058 171.793 35.9609 171.224 36.5867C170.655 37.1556 169.944 37.7244 169.091 38.2933C166.929 39.7724 164.852 40.512 162.861 40.512C160.87 40.512 159.163 40.256 157.741 39.744C156.319 39.1751 155.067 38.3787 153.987 37.3547C151.654 35.136 150.488 32.2631 150.488 28.736C150.488 25.0951 151.739 21.9093 154.243 19.1787C156.916 16.2773 159.818 14.8267 162.947 14.8267C166.303 14.8267 168.863 15.8222 170.627 17.8133C172.106 19.4062 172.845 21.2551 172.845 23.36C172.845 23.9858 172.703 24.5262 172.419 24.9813C172.134 25.4364 171.764 25.664 171.309 25.664ZM181.815 0.832001C182.383 1.68533 182.668 2.88 182.668 4.416C182.668 5.952 182.355 7.26045 181.729 8.34133C181.16 9.36533 180.506 10.2471 179.767 10.9867C179.027 11.7262 178.316 12.2951 177.633 12.6933C177.007 13.0916 176.638 13.2907 176.524 13.2907C175.898 13.2907 175.5 12.9493 175.329 12.2667C176.979 11.2427 177.946 10.3609 178.231 9.62133C178.515 8.88178 178.657 8.256 178.657 7.744C178.657 6.72 178.003 5.49689 176.695 4.07467C176.467 3.79022 176.353 3.392 176.353 2.88C176.353 2.31111 176.695 1.74222 177.377 1.17333C178.06 0.547557 178.686 0.234669 179.255 0.234669C180.279 0.234669 181.132 0.433779 181.815 0.832001Z" fill="black"/>
</svg>
