<svg width="640" height="480" xmlns="http://www.w3.org/2000/svg" xmlns:svg="http://www.w3.org/2000/svg">
 <!-- Created with SVG-edit - https://github.com/SVG-Edit/svgedit-->
 <g class="layer">
  <title>Layer 1</title>
  <rect fill="none" height="237.00001" id="svg_6" stroke="#000000" stroke-linejoin="round" stroke-width="0" transform="rotate(0.0000103312 303.196 239.473)" width="394.00001" x="105.3125" y="120.27548"/>
  <line stroke-width="4" fill="none" id="svg_2" stroke="#000000" x1="109" x2="300" y1="175" y2="324"/>
  <line stroke-width="4" fill="none" id="svg_3" stroke="#000000" x1="132.66667" x2="316" y1="156" y2="296.66667"/>
  <line stroke-width="4" fill="none" id="svg_4" stroke="#000000" x1="299.33333" x2="335.33333" y1="324" y2="331.33333"/>
  <line stroke-width="4" fill="none" id="svg_5" stroke="#000000" x1="315.33333" x2="335.33333" y1="296.66667" y2="332"/>
  <path stroke-width="4" d="m109.33334,176c0,-1.98974 0,-2.83192 0,-3.68043c0,-0.89004 0.10865,-1.75833 0.68607,-2.43535c0.52341,-0.61371 1.33199,-0.98105 1.37215,-1.75544c0.0456,-0.87929 0.82604,-1.30692 1.17729,-1.86156c0.45629,-0.72048 1.0921,-0.97784 1.55271,-1.55791c0.57453,-0.72352 1.08682,-0.75331 1.86977,-1.00464c0.93044,-0.29868 1.74007,-0.83473 2.22174,-1.48393c0.5067,-0.68294 1.08834,-0.81569 1.70317,-1.34122c0.64029,-0.54728 0.71483,-1.57777 1.4993,-2.02501c0.78454,-0.4473 1.54393,-0.67851 2.30063,-1.19402c0.63477,-0.43246 1.09844,-1.1148 1.88018,-1.43359c0.84512,-0.34463 1.77763,-0.22754 2.67993,-0.22754c0.95318,0 1.84199,0 2.74428,0l0.95318,0l0.92803,0" fill="none" id="svg_7" stroke="#000000"/>
  <path stroke-width="4" d="m314.66666,295.33334c-1.14133,0.64011 -1.71863,1.13523 -2.74933,1.41892c-0.89551,0.24649 -1.57944,0.43181 -2.34888,0.8815c-0.71219,0.41624 -0.67377,1.82544 -1.3089,2.2064c-0.82059,0.4922 -1.8642,0.22442 -2.23556,1.08056c-0.35929,0.82824 -0.85886,1.36614 -1.35743,2.10404c-0.5039,0.74581 -0.89193,1.4391 -1.33334,2.25728c-0.36639,0.67917 -1.33124,0.71299 -1.76477,1.37803c-0.46808,0.71802 -0.9018,1.46531 -0.9018,2.43151c0,0.97119 0.14499,2.11093 -0.18933,2.79718c-0.34457,0.70731 -0.94464,1.38406 -1.14398,2.16511c-0.2478,0.97099 0,1.95682 0,2.95171c0,1.06864 0.00006,2.01503 0,3.00992c-0.00006,1.0685 -0.47735,1.71763 -0.66669,2.67566l0,0.9623l0,0.91099" fill="none" id="svg_9" stroke="#000000"/>
  <path stroke-width="4" d="m328.66666,321.33334c-3.07029,2.8599 -3.46682,3.73935 -4.08719,4.3572l-0.24613,0.91178l0,0.92076l0,1.04348" fill="none" id="svg_10" stroke="#000000"/>
  <path stroke-width="4" d="m314.66666,352.00071c1.1792,0 1.91513,0 2.6176,0c0.84507,0 1.44906,0.03445 2.09987,-0.05153c0.84394,-0.11149 1.60809,-0.39579 2.28977,-0.85434c0.5844,-0.39311 1.24199,-0.83225 1.94788,-1.29729c0.44545,-0.29348 1.26695,-0.72733 2.01846,-0.95015c0.55367,-0.16416 1.41098,-0.56462 2.02736,-0.81077c0.73133,-0.29204 1.46207,-0.26329 2.25803,-0.26329c0.72079,0 1.32296,-0.37108 1.81612,-0.81641c0.63653,-0.57479 1.38635,-1.04509 1.45487,-1.81494c0.07036,-0.79042 0,-1.59926 0,-2.34005c0,-0.85675 0,-1.67487 0,-2.41564c0,-0.88113 0.02029,-1.73505 0.66559,-2.01869c0.70794,-0.31117 1.26893,-0.75017 1.88464,-1.15016c0.63035,-0.4095 1.38869,-0.33895 2.40981,-0.61648c0.32524,-0.08838 1.04297,-0.34166 1.84833,-0.62909c0.42931,-0.15321 1.32641,-0.47878 2.26947,-0.78003c0.47976,-0.15326 1.48446,-0.43867 2.01995,-0.58137c0.56485,-0.1505 1.16704,-0.30343 1.8117,-0.46562c0.69324,-0.17444 2.25155,-0.56274 3.12624,-0.78368c0.93568,-0.23636 1.92516,-0.48868 2.96144,-0.7573c1.07728,-0.27927 2.18811,-0.57131 3.32529,-0.87687c1.1583,-0.31123 3.50783,-0.96141 4.68508,-1.29854c1.17061,-0.33522 2.32468,-0.67381 3.45499,-1.01003c1.09964,-0.32709 2.15942,-0.64739 3.17201,-0.95568c0.95794,-0.29166 2.67716,-0.81821 3.42512,-1.05031c0.67974,-0.21093 1.30117,-0.40597 1.86902,-0.60692c0.53136,-0.18804 1.03189,-0.38454 1.50513,-0.60694c0.46951,-0.22064 1.40365,-0.76198 1.88472,-1.08976c0.50756,-0.34581 1.02534,-0.73602 1.55821,-1.1586c0.55665,-0.44143 1.12504,-0.91759 1.70981,-1.41948c0.60572,-0.51986 1.8619,-1.63086 2.51473,-2.21336c0.66561,-0.5939 1.33682,-1.19653 2.0105,-1.79996c0.67003,-0.60017 1.33111,-1.19196 1.98019,-1.76734c0.62895,-0.55754 1.81198,-1.58988 2.35881,-2.0539c0.51493,-0.43693 1.0074,-0.84538 1.47904,-1.2347c0.45525,-0.37581 0.90075,-0.74044 1.33754,-1.10425c0.4362,-0.36331 1.31877,-1.11865 1.77176,-1.52155c0.46496,-0.41354 0.93396,-0.84142 1.40827,-1.27547c0.47728,-0.43677 0.95311,-0.87538 1.42851,-1.30808c0.46943,-0.42725 1.3866,-1.24476 1.83154,-1.62662c0.43034,-0.36936 0.85119,-0.72034 1.25752,-1.06076c0.39307,-0.32931 0.77367,-0.64744 1.13622,-0.96296c0.35092,-0.30539 1.00316,-0.91018 1.30037,-1.21565c0.2882,-0.29619 0.55681,-0.59442 0.81197,-0.88685c0.24604,-0.28195 0.47717,-0.55851 0.70077,-0.82163c0.21365,-0.2514 0.61685,-0.71094 0.81418,-0.91029c0.18915,-0.19108 0.38242,-0.36726 0.58286,-0.52993c0.20276,-0.16454 0.41908,-0.32355 0.65361,-0.4756c0.80487,-0.52182 1.48171,-0.88817 1.84794,-1.08702c0.76598,-0.41589 1.15619,-0.63069 1.95312,-0.99395c1.10389,-0.50316 1.77029,-0.72717 2.36033,-0.88776c0.72581,-0.19755 1.62453,-0.47408 2.22762,0.04893c0.48486,0.42048 0.89615,1.28408 1.19994,1.98927c0.32411,0.75228 0.19849,1.6201 0.50473,2.26288c0.3607,0.75705 1.11409,0.97497 1.79982,1.41093c0.52313,0.3326 1.30325,0.82092 1.93023,1.18265c0.41941,0.24198 1.21894,0.7319 1.93019,1.18268c0.6863,0.43496 1.34726,0.65703 2.00086,1.05504c0.66299,0.40369 1.40421,1.01675 2.10925,0.78174c0.679,-0.22633 1.35296,-0.60379 2.04803,-0.60379c0.67632,0 1.33046,0.04931 2.21312,-0.0136c0.74896,-0.05339 1.38522,-0.2195 2.14544,-0.48968c0.93123,-0.33094 1.44385,-0.5806 2.00497,-0.83258c0.60489,-0.27164 1.24981,-0.57272 1.93806,-0.895c0.73203,-0.3428 2.32681,-1.09167 3.19055,-1.49166c0.89941,-0.41653 1.82745,-0.84248 2.77527,-1.27546c0.95853,-0.43786 1.92022,-0.87482 2.87636,-1.30807c0.94177,-0.42672 2.7498,-1.24338 3.60212,-1.62684c0.82101,-0.36939 1.61938,-0.72723 2.40467,-1.07345c0.77855,-0.34324 1.56018,-0.68266 2.35416,-1.0191c0.81194,-0.34404 2.53038,-1.04813 3.45077,-1.41445c0.9573,-0.38101 1.94737,-0.7677 2.96144,-1.16496c1.03207,-0.40433 2.07605,-0.8129 3.12313,-1.23017c1.04623,-0.41691 3.10428,-1.25917 4.10224,-1.6852c0.97704,-0.41711 1.92755,-0.83557 2.85195,-1.24922c0.899,-0.40229 1.76859,-0.79904 2.60935,-1.18394c0.81083,-0.37122 2.33603,-1.07088 3.0494,-1.39295c0.67774,-0.30597 1.32008,-0.59234 1.92542,-0.86055c0.56677,-0.25113 1.0946,-0.48307 1.5818,-0.69754c0.44566,-0.19619 1.20824,-0.53335 1.52309,-0.67677c0.27581,-0.12565 0.51673,-0.2383 0.72689,-0.34241c0.18679,-0.09256 0.35346,-0.1803 0.50452,-0.26633c0.14315,-0.08153 0.41908,-0.25467 0.56151,-0.34885c0.14733,-0.09742 0.29636,-0.19938 0.44558,-0.30437c0.14892,-0.10481 0.29467,-0.21024 0.43542,-0.31527c0.13551,-0.10112 0.38068,-0.29231 0.48668,-0.38116c0.09686,-0.08117 0.20785,-0.13447 0.32603,-0.30235c0.43985,-0.62475 0.64173,-1.39795 0.80917,-2.24706c0.14045,-0.71227 0.32629,-1.61377 0.06745,-2.36331c-0.22589,-0.65405 -1.11412,-0.53545 -1.7467,-0.53545c-0.69316,0 -1.70174,0 -2.36806,0c-0.76714,0 -1.2966,-0.34758 -1.04891,-1.01941c0.28853,-0.7826 0.5502,-1.40314 0.84749,-1.8963c0.59101,-0.98037 0.89126,-1.3356 1.53032,-2.14507c0.3487,-0.44168 0.72655,-0.89246 1.12527,-1.35427c0.41126,-0.47635 1.28438,-1.43869 1.74125,-1.91844c0.45953,-0.48252 1.39424,-1.4204 1.862,-1.8701c0.45769,-0.43999 0.9071,-0.86122 1.34931,-1.25463c0.81986,-0.72943 1.55911,-1.34427 2.23708,-1.82704c0.59494,-0.42364 1.15894,-0.73918 1.92739,-1.12217l0.69823,-0.2781l0.58708,-0.19113l0.80474,-0.04882" fill="none" id="svg_11" stroke="#000000"/>
  <rect fill="none" height="212.5" id="svg_15" opacity="0.5" stroke="#000000" stroke-width="0" width="600" x="-531.34371" y="-18.86222"/>
 </g>
</svg>