<svg width="640" height="480" xmlns="http://www.w3.org/2000/svg" xmlns:svg="http://www.w3.org/2000/svg">
 <!-- Created with SVG-edit - https://github.com/SVG-Edit/svgedit-->
 <defs>
  <linearGradient id="svg_13" spreadMethod="pad" x1="0" x2="1" y1="0" y2="0">
   <stop offset="0" stop-color="#7f003f"/>
   <stop offset="1" stop-color="#80ffc0"/>
  </linearGradient>
 </defs>
 <g class="layer">
  <title>Layer 1</title>
  <line fill="none" id="svg_2" stroke="#000000" x1="109" x2="300" y1="175" y2="324"/>
  <line fill="none" id="svg_3" stroke="#000000" x1="132.66667" x2="316" y1="156.000002" y2="296.666667"/>
  <line fill="none" id="svg_4" stroke="#000000" x1="299.333333" x2="335.333333" y1="324" y2="331.333333"/>
  <line fill="none" id="svg_5" stroke="#000000" x1="315.333333" x2="335.333333" y1="296.666667" y2="332"/>
  <path d="m109.333336,176c0,-1.989741 0,-2.83192 0,-3.680434c0,-0.890039 0.108657,-1.758326 0.686071,-2.435351c0.523411,-0.613703 1.331989,-0.981048 1.372149,-1.755432c0.045601,-0.879289 0.826047,-1.306927 1.177299,-1.861563c0.456289,-0.720484 1.092094,-0.977844 1.552702,-1.557908c0.574532,-0.723526 1.086826,-0.753311 1.869776,-1.004646c0.93044,-0.298678 1.74007,-0.834722 2.221735,-1.483925c0.506703,-0.682946 1.088341,-0.815687 1.703176,-1.341217c0.640289,-0.547281 0.714831,-1.57777 1.499296,-2.025019c0.784544,-0.447294 1.543932,-0.678501 2.300634,-1.194019c0.634769,-0.432453 1.098438,-1.114794 1.880179,-1.433584c0.845118,-0.344633 1.777623,-0.227545 2.679924,-0.227545c0.953186,0 1.84199,0 2.744282,0l0.953186,0l0.92803,0" fill="none" id="svg_7" stroke="#000000"/>
  <path d="m314.666656,295.333344c-1.141327,0.640101 -1.718628,1.135221 -2.749329,1.418915c-0.895508,0.246492 -1.579437,0.431809 -2.348877,0.881496c-0.712189,0.41624 -0.673767,1.825441 -1.308899,2.206409c-0.820587,0.492192 -1.864197,0.224413 -2.235565,1.080556c-0.359283,0.828243 -0.858856,1.366144 -1.357422,2.104037c-0.503906,0.745815 -0.891937,1.4391 -1.333344,2.257285c-0.366394,0.679163 -1.331238,0.712988 -1.764771,1.378028c-0.468079,0.718017 -0.901795,1.465313 -0.901795,2.43151c0,0.971192 0.144989,2.110926 -0.189331,2.797184c-0.344574,0.707305 -0.944641,1.384056 -1.143982,2.165108c-0.247803,0.970985 0,1.956816 0,2.951707c0,1.068638 0.000061,2.015029 0,3.00992c-0.000061,1.0685 -0.477356,1.717627 -0.666687,2.67566l0,0.962305l0,0.910981" fill="none" id="svg_9" stroke="#000000"/>
  <path d="m328.666656,321.333344c-3.070286,2.859892 -3.466817,3.73935 -4.087182,4.357193l-0.246131,0.911782l0,0.920765l0,1.043475" fill="none" id="svg_10" stroke="#000000"/>
  <path d="m314.666656,352.00071c1.1792,0 1.915134,0 2.617601,0c0.845073,0 1.449068,0.034446 2.099869,-0.05153c0.843942,-0.111492 1.608099,-0.395792 2.289771,-0.854337c0.584408,-0.39311 1.241995,-0.832249 1.947881,-1.297291c0.445452,-0.293478 1.266954,-0.727337 2.018464,-0.950154c0.553666,-0.164155 1.410974,-0.564619 2.027358,-0.810769c0.731333,-0.29204 1.462074,-0.26329 2.258026,-0.26329c0.720794,0 1.322963,-0.371077 1.816122,-0.816408c0.636536,-0.574792 1.38635,-1.045087 1.454877,-1.814941c0.070352,-0.790422 0,-1.599256 0,-2.340055c0,-0.856742 0,-1.674865 0,-2.415637c0,-0.881125 0.020281,-1.735047 0.665581,-2.018684c0.707942,-0.311171 1.268933,-0.750171 1.884649,-1.150165c0.630341,-0.409503 1.388689,-0.338954 2.409809,-0.616481c0.325234,-0.088381 1.042969,-0.341663 1.848329,-0.629087c0.42931,-0.153208 1.326408,-0.478782 2.269465,-0.780028c0.479767,-0.153263 1.484462,-0.438669 2.019955,-0.581372c0.564847,-0.150499 1.167042,-0.30343 1.811701,-0.465623c0.693239,-0.174439 2.251549,-0.562739 3.126233,-0.783677c0.93568,-0.236364 1.925159,-0.488678 2.961444,-0.757304c1.077284,-0.279268 2.188111,-0.571309 3.325286,-0.876868c1.158303,-0.311226 3.507836,-0.961406 4.685083,-1.298535c1.170615,-0.335222 2.324677,-0.673816 3.454988,-1.010033c1.099646,-0.327094 2.159426,-0.647388 3.172012,-0.955683c0.95794,-0.291653 2.677157,-0.818205 3.42512,-1.050312c0.679744,-0.21093 1.301166,-0.405965 1.869021,-0.606916c0.531355,-0.18804 1.03189,-0.38454 1.505128,-0.606943c0.469511,-0.220634 1.403648,-0.761976 1.884726,-1.089761c0.507553,-0.34581 1.025336,-0.736017 1.558207,-1.158597c0.556648,-0.441433 1.125042,-0.917589 1.70981,-1.419481c0.605717,-0.519862 1.861901,-1.630854 2.514733,-2.213359c0.665607,-0.593895 1.336818,-1.196525 2.010496,-1.799958c0.670028,-0.60017 1.331112,-1.191964 1.980191,-1.767337c0.628953,-0.557542 1.811983,-1.589884 2.358812,-2.053903c0.51493,-0.436927 1.007394,-0.84538 1.479039,-1.234703c0.455245,-0.375804 0.900748,-0.74044 1.337538,-1.104247c0.436198,-0.363309 1.318774,-1.11865 1.771757,-1.521546c0.464961,-0.41354 0.933958,-0.841427 1.408275,-1.275479c0.477273,-0.436761 0.953107,-0.875375 1.428504,-1.308072c0.469434,-0.427251 1.386607,-1.244766 1.831544,-1.626624c0.430338,-0.369363 0.851191,-0.720342 1.257521,-1.060761c0.393067,-0.329306 0.773667,-0.647443 1.136223,-0.962954c0.350912,-0.305393 1.003153,-0.91018 1.300369,-1.215656c0.288194,-0.296187 0.556802,-0.59442 0.811966,-0.886847c0.246039,-0.28195 0.477171,-0.558509 0.70077,-0.821633c0.213652,-0.251402 0.616847,-0.710943 0.814177,-0.91029c0.189156,-0.191081 0.382425,-0.367262 0.582866,-0.529925c0.202754,-0.164542 0.419079,-0.323556 0.653603,-0.475602c0.804872,-0.521825 1.481712,-0.888174 1.847943,-1.087024c0.765982,-0.415889 1.156195,-0.63069 1.953125,-0.993944c1.103887,-0.503164 1.770291,-0.727171 2.360329,-0.88776c0.725806,-0.19755 1.624524,-0.474082 2.227618,0.048931c0.484856,0.420479 0.896147,1.284077 1.199944,1.98927c0.324103,0.752272 0.198487,1.6201 0.504725,2.262871c0.360705,0.757055 1.114092,0.974979 1.799825,1.410939c0.523129,0.332595 1.303248,0.820914 1.930222,1.182648c0.419413,0.241976 1.218939,0.731898 1.930197,1.182675c0.686299,0.434964 1.347254,0.657036 2.000857,1.055039c0.662985,0.403698 1.404214,1.016751 2.109251,0.781742c0.678999,-0.226329 1.35296,-0.603792 2.048024,-0.603792c0.676326,0 1.330469,0.049318 2.213121,-0.013601c0.748966,-0.053382 1.385219,-0.2195 2.145443,-0.489674c0.931233,-0.330937 1.44385,-0.580598 2.00497,-0.832581c0.604894,-0.271639 1.24981,-0.572719 1.938062,-0.895003c0.732027,-0.342796 2.326811,-1.091668 3.190545,-1.491662c0.899412,-0.416525 1.827457,-0.842477 2.77527,-1.275451c0.958531,-0.437867 1.920223,-0.874822 2.876364,-1.308072c0.941772,-0.426726 2.749797,-1.243383 3.602119,-1.626845c0.821014,-0.369391 1.619383,-0.727226 2.404668,-1.07345c0.778551,-0.343239 1.560186,-0.682662 2.35416,-1.019101c0.811941,-0.34404 2.530387,-1.048128 3.450773,-1.41445c0.957297,-0.381002 1.947367,-0.767698 2.961444,-1.164955c1.03207,-0.404334 2.076042,-0.812897 3.123123,-1.230169c1.046233,-0.416912 3.104282,-1.259169 4.102243,-1.685204c0.977038,-0.417106 1.927549,-0.835566 2.851945,-1.249216c0.899,-0.402288 1.768595,-0.799047 2.60935,-1.183947c0.810835,-0.371215 2.336038,-1.070879 3.049404,-1.392942c0.67774,-0.305973 1.320084,-0.592347 1.925416,-0.860557c0.566775,-0.251126 1.094608,-0.483066 1.581803,-0.697535c0.445657,-0.196196 1.208246,-0.533353 1.523095,-0.676774c0.275805,-0.125646 0.516729,-0.238299 0.726886,-0.342409c0.186792,-0.092555 0.353457,-0.1803 0.50452,-0.266331c0.143146,-0.081525 0.419079,-0.254665 0.561506,-0.348851c0.147336,-0.097421 0.296368,-0.199375 0.44558,-0.30437c0.148929,-0.104802 0.294672,-0.210239 0.435427,-0.315262c0.135512,-0.101125 0.380677,-0.292317 0.486681,-0.381167c0.096853,-0.081165 0.207843,-0.134465 0.326031,-0.302352c0.439848,-0.624746 0.641728,-1.397946 0.809164,-2.247058c0.140447,-0.71227 0.326288,-1.613769 0.067448,-2.363305c-0.225887,-0.65405 -1.114118,-0.535454 -1.746695,-0.535454c-0.693162,0 -1.701739,0 -2.368066,0c-0.767138,0 -1.296591,-0.347579 -1.048906,-1.019405c0.288528,-0.782599 0.550196,-1.403143 0.847489,-1.8963c0.591014,-0.98037 0.891263,-1.335607 1.530318,-2.145076c0.348702,-0.441682 0.726552,-0.892459 1.125273,-1.354267c0.411265,-0.476349 1.284382,-1.438694 1.741246,-1.918444c0.459538,-0.482514 1.394241,-1.420394 1.862004,-1.870093c0.457687,-0.439996 0.907097,-0.861221 1.34931,-1.254635c0.819857,-0.729424 1.559107,-1.344273 2.237078,-1.827036c0.594947,-0.423644 1.158946,-0.739182 1.927395,-1.122174l0.698226,-0.278094l0.587081,-0.191137l0.804743,-0.048821" fill="none" id="svg_11" stroke="#000000"/>
  <rect fill="url(#svg_13)" height="228.499995" id="svg_15" opacity="0.5" stroke="#000000" width="403.500021" x="95.656288" y="140.137776"/>
 </g>
</svg>