<?xml version="1.0"?>
<svg width="640" height="480" xmlns="http://www.w3.org/2000/svg" xmlns:svg="http://www.w3.org/2000/svg">
 <!-- Created with SVG-edit - https://github.com/SVG-Edit/svgedit-->
 <g class="layer">
  <title>Layer 1</title>
  <path d="m190.951466,210.792271c-0.065049,-4.25152 -0.175449,-5.49026 -0.520421,-7.117489c-0.737778,-3.480313 -1.219456,-4.910106 -1.685282,-6.506302c-0.509192,-1.744808 -1.089482,-3.62424 -1.738171,-5.634085c-0.692489,-2.145521 -1.437309,-4.419859 -3.171354,-9.298117c-0.929823,-2.615769 -1.929254,-5.307016 -2.982288,-8.047223c-1.066496,-2.775314 -2.168728,-5.543362 -3.311626,-8.267509c-1.123418,-2.677733 -2.203532,-5.294216 -4.548329,-10.016086c-1.072266,-2.159306 -2.169689,-4.12474 -3.262863,-5.914434c-1.023006,-1.674797 -2.050759,-3.191815 -3.079876,-4.552615c-0.964906,-1.275884 -1.898885,-2.458974 -3.821873,-4.367232c-0.880966,-0.874221 -1.769284,-1.62638 -2.643829,-2.259603c-0.815917,-0.590781 -1.61893,-1.071725 -2.405968,-1.398522c-0.727511,-0.302079 -1.455797,-0.606502 -2.743093,-0.421288c-0.607836,0.087463 -1.200627,0.438163 -1.728989,0.974619c-0.62955,0.639232 -1.22262,1.602477 -1.85707,2.817008c-0.768922,1.471962 -1.58881,3.299412 -3.529169,8.075777c-1.20711,2.971358 -2.495461,6.317863 -3.875755,9.956397c-1.463707,3.858481 -2.955548,7.885674 -4.442954,12.019106c-1.49634,4.158184 -2.989856,8.272534 -5.572918,16.222753c-1.190948,3.665459 -2.235762,7.156874 -3.165243,10.497098c-0.891079,3.202205 -1.683514,6.324721 -2.396817,9.395664c-0.705486,3.037295 -1.366893,6.089156 -2.569629,12.371776c-0.626572,3.272962 -1.221689,6.632369 -1.811316,10.039819c-0.592202,3.422254 -1.159339,6.832997 -1.701568,10.200043c-0.529696,3.289124 -1.037865,6.47038 -1.908253,12.395543c-0.394046,2.682419 -0.744106,5.180507 -1.018478,7.513177c-0.255728,2.174313 -0.452302,4.21312 -0.542787,6.131359c-0.085305,1.808062 -0.173215,3.542821 0.206003,6.752563c0.182738,1.546828 0.529541,3.052744 1.003247,4.502569c0.477893,1.462727 1.113647,2.89639 1.899754,4.282282c0.817127,1.44059 1.755046,2.914895 4.212228,5.678563c1.341581,1.508903 2.884854,2.949527 4.522241,4.399114c1.688229,1.494575 3.470262,2.944026 5.308969,4.359049c1.847082,1.421508 3.704742,2.813749 7.448631,5.334416c1.806012,1.215923 3.637118,2.370765 5.571211,3.421133c2.031278,1.103165 4.279976,2.146234 6.797088,3.120785c2.795393,1.082284 5.970562,2.185857 13.720862,4.212916c4.619396,1.208182 9.754064,2.330157 15.307904,3.517933c5.911686,1.264306 12.135092,2.517272 18.601259,3.798316c6.646145,1.316695 13.418883,2.618791 27.078512,5.292891c6.792777,1.329801 13.593339,2.684897 20.485783,3.995244c7.045248,1.33941 14.322897,2.67023 21.912855,3.935147c7.95773,1.326202 16.361651,2.70296 34.852449,5.049585c10.164985,1.290008 20.881938,2.428451 32.003268,3.541327c11.389962,1.139767 22.92609,2.18657 34.473261,3.160782c11.42154,0.963619 22.588345,1.879703 43.640086,3.311024c9.637584,0.655258 18.647014,1.19073 27.048019,1.572056c7.8084,0.354435 15.050066,0.580799 21.742121,0.590781c6.163351,0.009201 11.84459,0.082472 21.684486,-1.050267c4.267537,-0.491265 8.100918,-1.294898 11.496174,-2.279669c3.055836,-0.886342 5.736455,-1.942007 8.019894,-3.140784c2.031558,-1.06653 3.85249,-2.099922 6.234325,-4.59268c0.969001,-1.014141 1.654169,-2.105049 1.988192,-3.177487c0.306043,-0.982632 0.299528,-2.039791 0.01216,-3.017297c-0.308152,-1.048162 -0.884813,-2.137168 -2.678013,-4.189217c-1.041711,-1.192054 -2.319547,-2.325981 -3.708061,-3.497901c-1.467801,-1.238807 -3.056766,-2.454934 -4.73265,-3.658125c-1.717636,-1.233205 -3.480437,-2.461046 -7.145008,-4.711379c-1.82025,-1.117799 -3.679585,-2.169254 -5.589544,-3.177487c-1.957978,-1.033596 -4.016337,-2.035921 -6.193316,-3.017297c-2.294483,-1.034377 -4.746112,-2.091671 -10.240487,-4.189217c-3.046034,-1.162855 -6.304119,-2.316304 -9.721462,-3.537965c-3.554202,-1.270587 -7.222992,-2.569967 -10.965547,-3.938508c-3.802362,-1.390441 -7.650261,-2.764653 -15.227935,-5.87437c-3.742369,-1.535794 -7.387212,-3.163804 -10.944268,-4.792934c-3.465919,-1.587402 -6.802858,-3.177147 -10.011126,-4.712839c-3.064584,-1.466903 -5.947887,-2.90678 -11.232567,-5.328474c-2.331396,-1.068364 -4.478969,-1.985399 -6.440297,-2.786994c-1.77434,-0.725167 -3.384213,-1.342941 -4.830238,-1.885815c-1.289064,-0.483965 -2.445364,-0.870825 -4.315183,-1.631779c-0.758996,-0.30887 -1.403094,-0.612953 -1.945508,-0.901179c-0.465423,-0.247279 -0.851932,-0.485561 -1.177082,-0.700925c-0.28042,-0.185723 -0.508851,-0.379254 -0.943254,-0.623037c-0.198528,-0.1114 -0.40481,-0.188337 -0.609914,-0.243646c-0.201754,-0.054393 -0.406175,-0.085256 -0.609852,-0.103455c-0.202994,-0.018131 -0.406609,-0.022239 -0.813157,-0.023733c-0.203305,-0.000747 -0.406609,0 -0.609914,0c-0.203305,0 -0.406547,0 -0.609852,0c-0.203305,0 -0.406609,0 -0.813157,0c-0.202994,0 -0.40388,0 -0.600732,0c-0.190773,0 -0.373418,0 -0.545889,0l-0.160249,0l-0.146042,0" fill="none" id="svg_1" stroke="#000000" stroke-width="0"/>
  <path d="m447.662824,132.129227c-8.763345,0 -18.356727,-0.002222 -24.894475,0c-11.118636,0.003838 -18.050892,-0.115128 -25.963088,0.965153c-9.51436,1.299023 -14.883963,2.688532 -26.561185,6.756272c-6.795325,2.367185 -13.778554,5.419782 -21.095669,8.766157c-7.670001,3.507857 -15.39399,7.326659 -23.141806,11.327443c-7.799392,4.027345 -15.48749,8.093772 -29.886762,16.307721c-6.784165,3.869903 -13.169297,7.698803 -19.287201,11.466404c-5.991528,3.689738 -11.823503,7.410076 -17.596966,11.168587c-5.83288,3.797392 -11.725178,7.714659 -24.062327,15.972538c-6.561575,4.392117 -13.346344,8.932991 -20.161877,13.650495c-6.88973,4.768807 -13.690182,9.601842 -20.161877,14.543946c-6.342605,4.84374 -12.690036,9.490451 -22.270147,19.237516c-4.377299,4.453519 -7.772247,8.93895 -10.496108,13.273301c-2.565213,4.081778 -4.460544,8.075897 -5.870582,11.903182c-1.331015,3.612885 -2.275363,7.074186 -3.399774,13.431046c-0.508518,2.874352 -0.858087,5.556825 -1.037848,8.041358c-0.315788,4.365153 -2.381531,11.185553 6.137509,15.149578c7.203708,3.35203 15.802976,2.882229 24.544907,4.636208c9.876898,1.98181 16.947896,3.314462 24.199259,4.532593c7.139465,1.199347 20.260806,3.04159 28.508092,3.69297c7.767421,0.613408 13.405158,0.805085 23.37073,1.81336c7.822616,0.791553 15.958306,1.867693 23.927205,2.819616c13.126469,1.568159 21.194597,3.306181 30.78798,2.263368c8.296751,-0.901833 12.861955,-4.501084 20.754847,-8.753938c5.424497,-2.922827 11.747196,-6.125595 18.382666,-9.609921c6.674077,-3.504524 15.816247,-8.534993 23.508868,-13.095661c4.723852,-2.800428 14.066594,-8.221321 19.265787,-10.845422c5.577716,-2.815172 11.841902,-5.721639 18.620035,-9.053875c11.626551,-5.715781 15.770704,-7.895732 24.286425,-12.372074c4.251527,-2.234788 12.383597,-6.586004 16.129321,-8.648101c11.882921,-6.541569 17.142436,-9.729088 23.113756,-14.692905l-0.84361,-5.506532" fill="none" id="svg_2" stroke="#000000" stroke-width="0"/>
  <path d="m160.312515,138.12735c1.800003,0 2.677139,0.102814 3.157333,0.343002c1.204773,0.6026 1.71756,0.98436 2.335999,1.375656c0.701782,0.444031 1.480606,0.949722 2.339996,1.510498c0.940674,0.613815 1.959747,1.284073 3.060013,2.005508c2.439423,1.599533 3.77681,2.473312 5.18132,3.38533c1.454788,0.944687 2.947891,1.908936 4.46701,2.880005c1.526215,0.975601 3.047699,1.94249 4.556992,2.87999c2.894409,1.797867 4.270981,2.620087 5.609344,3.401337c1.312744,0.766312 2.631973,1.51004 3.979492,2.239502c1.384415,0.749435 2.838394,1.508774 4.384506,2.2845c3.417938,1.714874 5.350204,2.624954 7.40799,3.612c2.177185,1.044327 4.462601,2.135986 6.832504,3.291c2.450195,1.194138 4.964142,2.429459 7.507507,3.740997c5.198929,2.680939 7.786621,4.123871 10.375992,5.590668c2.597702,1.471512 5.177277,2.984497 7.741501,4.522507c2.559799,1.535355 5.095703,3.090759 7.606506,4.657501c4.965347,3.098389 7.389206,4.653564 9.769333,6.174667c2.313171,1.478317 4.534271,2.907867 6.644989,4.271988c1.982544,1.281296 3.813873,2.470551 5.475006,3.552002c2.734192,1.780045 3.772156,2.458832 4.604004,3.001343c0.647827,0.422501 1.134674,0.73999 1.48349,0.967499c0.233826,0.152496 0.375671,0.244995 0.448517,0.292496c0.03067,0.020004 0.030487,0.020004 0.029327,0.020004c-0.003174,0 -0.009338,0 -0.019501,0c-0.015167,0 -0.036346,0 -0.064514,0c-0.081329,0 -0.136169,0 -0.199982,0c-0.071838,0 -0.150665,0 -0.235504,0c-0.089844,0 -0.183685,0 -0.280518,0c-0.198639,0 -0.298645,0 -0.398651,0c-0.100006,0 -0.200012,0 -0.299988,0c-0.100006,0 -0.200012,0 -0.300018,0c-0.199982,0 -0.299835,0 -0.398651,0c-0.096832,0 -0.190674,0 -0.280518,0l-0.084839,0l-0.078827,0l-0.071838,0" fill="none" id="svg_4" stroke="#000000" stroke-width="0"/>
  <path d="m182.312525,160.12735c7.768528,9.478453 13.446286,13.318056 19.04571,16.011292c11.902217,5.724868 20.126329,8.412001 27.666082,11.111268c14.080499,5.040825 22.944395,8.403385 31.160314,11.581848c11.493502,4.446245 18.369216,6.884733 29.975139,10.801521c8.168721,2.756851 21.138774,6.944902 33.727317,11.152841c7.957645,2.659992 20.576669,6.065346 26.599229,10.061976c6.636123,4.403811 8.263443,9.509543 26.374059,9.273032c18.239752,-0.238162 20.255466,-5.175307 25.005995,-8.839357l18.530146,-0.571675" fill="none" id="svg_5" stroke="#000000" stroke-width="0"/>
  <line fill="none" id="svg_6" stroke="#000000" x1="240.312517" x2="229.312517" y1="237.127367" y2="207.127367"/>
  <path stroke-width="4" d="m280.722365,193.593952c-0.317883,-4.219859 -0.831174,-4.901917 -1.752582,-5.057723c-0.468201,-0.079176 -1.275373,-0.063437 -2.174448,-0.058144c-0.687559,0.004044 -1.534973,0.038799 -2.044396,0.073321c-0.580953,0.039361 -1.24398,0.089481 -2.854323,0.267411c-0.968485,0.107015 -2.050118,0.243913 -3.242358,0.435896c-1.308144,0.210656 -2.729147,0.482127 -4.258052,0.841111c-1.648811,0.387135 -3.421686,0.816864 -7.257369,2.133795c-2.10313,0.72209 -4.277154,1.598847 -6.51468,2.535607c-2.284895,0.956604 -4.574823,1.974288 -6.850657,3.014471c-2.243805,1.025537 -4.421617,2.047078 -8.481956,4.000194c-1.844471,0.887234 -3.564189,1.725347 -5.170863,2.532515c-1.517223,0.762232 -2.954067,1.50626 -4.319263,2.256251c-1.323841,0.727274 -2.621455,1.446944 -5.122978,3.056081c-1.271028,0.817598 -2.528585,1.697149 -3.77234,2.607741c-1.23676,0.90547 -2.438591,1.834657 -3.592655,2.782705c-1.120538,0.920506 -2.202543,1.807084 -4.065042,3.648205c-0.84148,0.831821 -1.579321,1.661332 -2.233208,2.457305c-0.601259,0.731911 -1.121439,1.43539 -1.569095,2.098165c-0.403771,0.597807 -0.750478,1.146479 -1.26165,2.095604c-0.202098,0.375238 -0.359542,0.700965 -0.47138,0.98385c-0.092975,0.23517 -0.154186,0.442329 -0.174479,0.624678c-0.017882,0.160772 -0.009762,0.316484 0.067132,0.608487c0.042361,0.160881 0.104486,0.331426 0.200535,0.497304c0.107056,0.184894 0.261533,0.368586 0.466161,0.534136c0.238088,0.192623 0.539559,0.391741 1.358877,0.67397c0.509423,0.175479 1.10202,0.296562 1.756609,0.423624c0.712356,0.138273 1.480464,0.260666 2.295704,0.386792c0.856422,0.132511 1.749946,0.255826 3.615942,0.553902c0.963266,0.15387 1.938055,0.322745 2.919442,0.50191c0.984009,0.179648 1.964137,0.368727 2.935059,0.566362c0.958007,0.194996 1.897946,0.387682 3.694651,0.807683c0.853176,0.19943 1.67941,0.407854 2.487125,0.627754c0.801185,0.21812 1.601548,0.453508 2.408985,0.710646c0.827558,0.263555 1.68235,0.545565 3.495573,1.219706c0.982022,0.365105 2.006658,0.769836 3.067879,1.207934c1.09639,0.452602 2.215882,0.936588 3.349149,1.456578c1.149362,0.527375 2.309678,1.060746 4.578969,2.281154c1.126751,0.605958 2.225366,1.256288 3.311371,1.906307c1.074984,0.64343 2.130788,1.294963 3.178564,1.924715c1.032543,0.620603 2.040687,1.253712 4.071996,2.308431c0.987745,0.51287 1.985848,0.962241 2.991051,1.378307c1.012356,0.419033 2.052821,0.803936 3.123884,1.175707c1.105265,0.383653 2.259594,0.757267 4.736374,1.538954c1.332623,0.420579 2.71296,0.850698 4.117431,1.287749c1.405875,0.437473 2.791006,0.866405 4.133035,1.278538c1.275585,0.391741 2.46152,0.759125 4.481755,1.356136c0.791806,0.233999 1.442779,0.419174 1.967541,0.560226c0.411772,0.110684 0.726635,0.189532 0.959689,0.237902c0.164439,0.034131 0.276502,0.052508 0.400486,0.054585c0.039792,0.000671 0.076987,-0.002295 0.110685,-0.02303c0.04252,-0.026153 0.089677,-0.082049 0.149762,-0.161162c0.080749,-0.106312 0.179857,-0.251985 0.462982,-0.668521c0.190269,-0.279918 0.409547,-0.603506 0.64978,-0.965426c0.258699,-0.389758 0.527968,-0.801984 0.798218,-1.232494c0.272952,-0.434819 0.549083,-0.862705 1.011641,-1.724504c0.212205,-0.395348 0.394367,-0.787339 0.561216,-1.177238c0.167724,-0.391913 0.326043,-0.804732 0.490905,-1.241705c0.177552,-0.470589 0.36239,-0.990095 0.828763,-2.185647c0.274064,-0.702605 0.587603,-1.472347 0.945357,-2.303825c0.387293,-0.90013 0.819835,-1.857843 1.30478,-2.865597c0.515305,-1.070832 1.065129,-2.202634 2.379764,-4.551379c0.704593,-1.258865 1.477908,-2.53353 2.282669,-3.840234c0.823703,-1.337478 1.677237,-2.683669 2.54052,-4.042819c0.866833,-1.364724 1.743866,-2.716238 3.423805,-5.419096c0.818272,-1.316494 1.608489,-2.627445 2.388136,-3.930792c0.778322,-1.301146 1.553756,-2.614298 2.341297,-3.939988c0.801635,-1.349423 1.617179,-2.735943 3.37286,-5.601914c0.925514,-1.510803 1.889919,-3.046385 2.867358,-4.598438c0.976406,-1.550414 1.944202,-3.075176 2.882962,-4.561622c0.900425,-1.425725 1.759814,-2.76286 3.220105,-5.165331c0.610492,-1.004381 1.126645,-1.89021 1.554763,-2.666057c0.36504,-0.661557 0.659318,-1.230058 0.882861,-1.717509c0.183752,-0.400719 0.338335,-0.729772 0.456068,-1.244266c0.04162,-0.181865 0.051581,-0.337094 0.020823,-0.448168c-0.025539,-0.092229 -0.089862,-0.158117 -0.166664,-0.190328c-0.086392,-0.036223 -0.192097,-0.042266 -0.432913,-0.043655c-0.138026,-0.000796 -0.306279,0.00559 -0.523464,0.041438c-0.290251,0.047902 -0.671531,0.143956 -1.164131,0.290082c-0.629434,0.186705 -1.413664,0.439378 -3.521032,1.203343c-1.36762,0.495789 -2.93486,1.094518 -4.694277,1.768159c-1.938744,0.742294 -4.041212,1.556753 -6.295931,2.431215c-2.393964,0.928453 -4.912628,1.910367 -10.278356,3.986563c-2.819592,1.091005 -5.719085,2.207428 -8.689286,3.352143c-3.033624,1.16915 -6.123121,2.359612 -9.259642,3.573151c-3.177187,1.229262 -6.388364,2.468406 -12.868788,5.012522c-3.259711,1.279709 -6.520243,2.571299 -9.770072,3.887808c-3.240133,1.312575 -6.457112,2.642153 -9.637266,4.007532c-3.150933,1.352826 -6.269571,2.685449 -12.278484,5.577354c-2.924939,1.407676 -5.744531,2.867626 -8.456206,4.311432c-2.596313,1.382383 -5.039076,2.736052 -7.31552,4.02594c-2.09913,1.189432 -3.990028,2.290163 -7.08836,4.11208c-1.176808,0.692003 -2.118178,1.248357 -2.851727,1.680677c-0.551242,0.324869 -0.946231,0.557665 -1.210997,0.713706c-0.16061,0.094649 -0.286728,0.119177 -0.2778,0.163723c0.000106,0.0005 0.003471,0 0.011723,0c0.016054,0 0.042534,0 0.082034,0c0.055131,0 0.128475,0 0.340296,0c0.142662,0 0.307895,0 0.492217,0c0.199952,0 0.412064,0 0.632852,0c0.225994,0 0.453723,0 0.900505,0c0.212695,0 0.4167,0 0.612015,0c0.186653,0 0.364602,0 0.533889,0c0.160597,0 0.312518,0 0.590305,0c0.126025,0 0.244234,0 0.355489,0c0.105188,0 0.205171,0 0.300809,0c0.092154,0 0.181725,0 0.356496,0c0.086816,0 0.173618,0 0.260434,0c0.086803,0 0.173618,0 0.260434,0c0.086803,0 0.173618,0.000172 0.347237,0c0.087107,-0.000094 0.175976,0 0.268249,-0.004606c0.097572,-0.004856 0.202204,-0.014614 0.315114,-0.032242c0.123839,-0.019345 0.260593,-0.043874 0.574105,-0.133698c0.183566,-0.052586 0.385902,-0.122363 0.610717,-0.20413c0.250976,-0.091292 0.529041,-0.199602 0.837281,-0.32387c0.342031,-0.137882 0.71935,-0.294204 1.590368,-0.665788c0.499634,-0.213155 1.041564,-0.449245 1.631604,-0.687616c0.633342,-0.255857 1.314079,-0.515322 2.045694,-0.761296c0.775659,-0.260776 1.598449,-0.535244 3.412228,-0.938649c0.976128,-0.217105 2.001505,-0.379891 3.060064,-0.53106c1.082786,-0.154635 2.184422,-0.283072 3.294469,-0.40214c1.109411,-0.119006 2.210994,-0.220555 4.352087,-0.431118c1.026794,-0.100972 2.03262,-0.204864 3.031425,-0.311582c1.005945,-0.107483 2.032554,-0.221008 3.093921,-0.339202c1.110047,-0.123612 2.282404,-0.256747 4.870664,-0.543004c1.43748,-0.158976 2.958359,-0.325009 4.541919,-0.492698c1.624941,-0.172076 3.270811,-0.341763 4.916946,-0.501894c1.624862,-0.158055 3.207468,-0.317218 6.167019,-0.540272c1.336889,-0.100754 2.572868,-0.171576 3.709844,-0.224084c1.040253,-0.048043 1.98704,-0.077724 2.842587,-0.095164c0.76693,-0.015629 1.447998,-0.020469 2.562668,-0.021828c0.438953,-0.000531 0.803278,0 1.096417,0c0.225398,0 0.386578,0 0.486984,0c0.04313,0 0.032427,-0.000375 -0.136569,0c-0.153232,0.000343 -0.357807,0.001874 -0.621142,0.018408c-0.33052,0.020766 -0.735801,0.061423 -1.222706,0.128936c-0.578383,0.080191 -1.256272,0.183302 -2.930728,0.534807c-1.016992,0.213483 -2.150022,0.485156 -3.399935,0.788931c-1.364865,0.331707 -2.839726,0.702417 -4.423418,1.102028c-1.689954,0.426419 -3.482142,0.885266 -7.368478,1.860934c-2.083658,0.523097 -4.240832,1.058185 -6.44829,1.603937c-2.23493,0.552544 -4.47533,1.103605 -6.698286,1.649981c-2.182965,0.536556 -4.303474,1.057389 -8.266679,2.032838c-1.798851,0.442735 -3.449768,0.859161 -4.946896,1.178768c-1.317192,0.281198 -2.447969,0.506234 -3.37649,0.515712c-0.708541,0.007229 -1.457522,-0.191499 -1.370455,-1.012328c0.079345,-0.748024 0.921911,-1.541671 1.927193,-2.581635c1.325351,-1.371063 3.121539,-2.943445 5.364894,-4.810266c2.69623,-2.243698 5.921845,-4.822741 14.121166,-11.026459c4.970395,-3.760668 10.511821,-7.83412 16.516574,-12.211363c6.37517,-4.647277 13.063826,-9.461884 19.985483,-14.384738c7.052397,-5.015848 14.156534,-10.065281 28.316432,-19.790875c6.838656,-4.697084 13.492235,-9.16426 19.912575,-13.417782c6.136314,-4.065364 11.982722,-7.873482 17.506213,-11.41016c5.147775,-3.296122 9.892123,-6.330296 18.139912,-11.326612c3.400121,-2.059709 6.369369,-3.787679 8.949733,-5.213936c2.209603,-1.221314 4.117007,-2.209973 5.769844,-2.976093c1.41573,-0.656217 2.658041,-1.187917 4.812778,-1.871864c0.969465,-0.307725 1.889389,-0.549546 2.744936,-0.68148c0.76852,-0.118522 1.465033,-0.163707 2.026169,0.018424c0.477341,0.154917 0.994262,0.533683 1.01625,1.686298c0.015578,0.816239 -0.408567,1.818154 -0.989626,2.986851c-0.728913,1.466086 -1.802441,3.138426 -3.177266,5.068122c-1.632544,2.291428 -3.619293,4.907178 -8.854678,11.045555c-3.160974,3.706177 -6.74421,7.666791 -10.629514,11.882919c-4.096978,4.445848 -8.396836,8.989421 -12.840548,13.558974c-4.474284,4.601015 -8.913677,9.18131 -17.764912,17.534281c-4.140294,3.907231 -8.20111,7.513639 -12.214239,10.880645c-3.93964,3.305365 -7.945405,6.452191 -12.05796,9.490066c-4.20369,3.1052 -8.605914,6.225858 -18.26493,12.543586c-5.261295,3.44128 -10.828658,6.920344 -16.592091,10.464688c-5.866727,3.607875 -11.792268,7.166911 -17.701515,10.630471c-5.789025,3.393097 -11.381847,6.680756 -21.843822,12.330743c-4.646697,2.509454 -8.932778,4.681033 -12.853595,6.575349c-3.544942,1.712732 -6.761351,3.170777 -9.658102,4.40199c-2.571304,1.092878 -4.848768,2.016819 -8.595397,3.348052c-1.479365,0.525642 -2.734273,0.929 -3.782765,1.227903c-0.856263,0.2441 -1.550285,0.41079 -2.102984,0.491136c-0.427654,0.062173 -0.764758,0.09952 -1.203764,-0.013615c-0.159564,-0.041126 -0.293258,-0.112042 -0.3568,-0.222585c-0.060986,-0.106078 -0.053674,-0.272517 0.00261,-0.452758c0.073,-0.233733 0.212059,-0.508561 0.643555,-1.200611c0.277972,-0.445826 0.616705,-0.935463 1.000064,-1.471941c0.417322,-0.584005 0.87641,-1.197519 1.375078,-1.831081c0.520908,-0.661822 1.061327,-1.346347 2.254746,-2.665901c0.606637,-0.670753 1.238708,-1.31156 1.873811,-1.940063c0.627752,-0.621196 1.254047,-1.216318 1.865996,-1.792704c0.59098,-0.55665 1.164953,-1.076796 2.19225,-2.065595c0.459777,-0.442547 0.881934,-0.865859 1.2683,-1.284674c0.372842,-0.404169 0.726648,-0.819705 1.065169,-1.257069c0.348098,-0.449729 0.702143,-0.934339 1.428314,-2.062847c0.410395,-0.637778 0.833744,-1.343005 1.281321,-2.099695c0.473937,-0.801266 0.963067,-1.650778 1.468834,-2.541743c0.525041,-0.924909 1.063261,-1.883168 2.169109,-3.885591c0.569137,-1.030581 1.139228,-2.072684 1.704524,-3.115771c0.558593,-1.030705 1.101013,-2.041379 1.618583,-3.023683c0.49427,-0.938071 0.96455,-1.818403 1.740832,-3.410802c0.32799,-0.672814 0.603286,-1.276914 0.826869,-1.821885c0.198137,-0.482955 0.357237,-0.924518 0.475288,-1.333794c0.108473,-0.376065 0.195845,-0.737548 0.289364,-1.448911c0.047461,-0.361014 0.073689,-0.7296 0.091161,-1.097422c0.017207,-0.362154 0.022108,-0.714689 0.013021,-1.051393c-0.008544,-0.316562 -0.008809,-0.61328 -0.104182,-1.091457c-0.03754,-0.18822 -0.095187,-0.340498 -0.165366,-0.452774c-0.061926,-0.099083 -0.139721,-0.170171 -0.220073,-0.222554c-0.079332,-0.051712 -0.16934,-0.078988 -0.337977,-0.177369c-0.089333,-0.052118 -0.179738,-0.124611 -0.268249,-0.222554c-0.102115,-0.112994 -0.206098,-0.264351 -0.315114,-0.45279c-0.128502,-0.222101 -0.269163,-0.491948 -0.574105,-1.200595c-0.187712,-0.436239 -0.382723,-0.936775 -0.579469,-1.499561c-0.214814,-0.614451 -0.425469,-1.289202 -0.618519,-2.024485c-0.205542,-0.782842 -0.420131,-1.618208 -0.682909,-3.468119c-0.14086,-0.991672 -0.221702,-2.031823 -0.273455,-3.100423c-0.052654,-1.087242 -0.065277,-2.186646 -0.039063,-3.284599c0.025989,-1.0886 0.052389,-2.163944 0.312518,-4.188476c0.12221,-0.951093 0.293629,-1.861091 0.593789,-2.681405c0.29649,-0.810275 0.738384,-1.571118 1.343816,-2.193313c0.661424,-0.679747 1.523462,-1.340663 3.849764,-2.117432c1.433719,-0.478724 3.132799,-0.734831 5.052362,-0.891761c2.155611,-0.176229 4.571617,-0.16811 7.240003,0.019954c2.943709,0.207471 6.181974,0.528249 13.461398,2.06558c4.105774,0.867092 8.424441,2.053245 12.912183,3.350612c4.603435,1.330827 9.230024,2.786655 13.81849,4.299144c4.497094,1.482355 8.826941,2.944054 16.674562,5.822938c3.425103,1.256491 6.487445,2.441942 9.20626,3.548606c2.40827,0.980258 4.510234,1.885775 6.315456,2.738191c1.550524,0.732145 2.885081,1.323333 4.734069,2.581307c0.656774,0.446857 1.168768,0.866452 1.30735,1.332263c0.112037,0.376612 -0.120991,0.839472 -0.536472,1.221751c-0.561666,0.51682 -1.396285,0.993998 -3.664569,2.221105c-1.443733,0.781031 -3.08955,1.623719 -4.884387,2.586257c-1.931273,1.035702 -3.9669,2.149549 -6.064149,3.369021c-2.157678,1.254618 -4.367705,2.508392 -8.58382,5.470933c-2.073644,1.457093 -4.038721,3.023011 -5.902677,4.639892c-1.813196,1.572866 -3.50927,3.192323 -5.066682,4.851704c-1.491658,1.589339 -2.921694,3.120455 -5.090578,6.368674c-0.979029,1.466227 -1.75025,2.954749 -2.385539,4.378945c-0.587258,1.316525 -1.03604,2.582712 -1.385502,3.761964c-0.315923,1.066086 -0.538724,2.039958 -0.858832,3.626377c-0.121044,0.599899 -0.210933,1.08248 -0.289086,1.456578c-0.058919,0.28201 -0.101625,0.486515 -0.148464,0.618542c-0.029936,0.084437 -0.065966,0.133495 -0.141205,0.141895c-0.048693,0.005433 -0.113759,-0.002592 -0.200521,-0.018424c-0.117176,-0.021359 -0.270435,-0.063672 -0.466188,-0.128936c-0.24781,-0.082626 -0.553719,-0.192639 -1.358851,-0.534791c-0.517821,-0.220056 -1.109742,-0.489138 -1.768345,-0.821173c-0.733126,-0.369601 -1.52925,-0.806496 -2.377724,-1.327642c-0.918493,-0.564145 -1.906874,-1.181562 -3.95625,-2.796866c-1.123518,-0.885532 -2.262111,-1.903684 -3.450721,-2.982229c-1.242337,-1.127259 -2.516757,-2.326933 -3.841353,-3.562424c-1.366507,-1.274587 -2.757705,-2.606148 -5.729496,-5.222632c-1.528138,-1.345426 -3.101339,-2.657891 -4.686462,-3.958412c-1.575996,-1.293042 -3.143144,-2.545927 -4.67866,-3.765024c-1.487564,-1.181032 -2.923681,-2.297143 -5.537347,-4.38494c-1.167403,-0.932513 -2.235605,-1.805475 -3.220237,-2.612331c-0.910122,-0.745791 -1.75139,-1.441245 -2.540507,-2.078211c-0.738583,-0.596183 -1.430261,-1.168275 -2.775614,-2.131062c-0.640667,-0.458489 -1.284712,-0.870636 -1.914172,-1.280083c-0.620599,-0.403685 -1.237264,-0.799986 -1.836046,-1.224812c-0.599312,-0.425216 -1.214242,-0.845218 -2.326514,-1.929165c-0.57731,-0.562615 -1.119068,-1.206825 -1.630306,-1.900155c-0.517106,-0.701293 -0.993335,-1.453455 -1.411531,-2.250115c-0.41723,-0.794833 -0.833863,-1.605811 -1.298687,-3.353501c-0.228961,-0.860878 -0.34264,-1.757542 -0.385439,-2.655315c-0.043116,-0.904315 -0.000106,-1.825055 0.114593,-2.747403c0.117004,-0.940881 0.276859,-1.90423 0.849573,-3.806462c0.298371,-0.991016 0.684777,-1.986045 1.126366,-3.003729c0.466307,-1.074673 1.013893,-2.185179 1.634213,-3.344461c0.665159,-1.243079 1.407345,-2.560541 3.171478,-5.419096c0.983453,-1.59357 2.059722,-3.25242 3.185068,-4.98217c1.159416,-1.782118 2.349589,-3.587031 3.544478,-5.405778c1.188928,-1.809675 2.369141,-3.580411 4.555814,-7.00717c1.014489,-1.589823 1.950851,-3.106496 2.828281,-4.533986c0.821637,-1.336713 1.581255,-2.588927 2.297002,-3.741994c0.660748,-1.064446 1.24794,-2.061005 2.398282,-3.661851c0.48913,-0.680683 0.960643,-1.249887 1.406339,-1.711373c0.389479,-0.403279 0.753962,-0.718515 1.093807,-0.928594c0.287536,-0.177728 0.562912,-0.351131 0.972273,-0.259214c0.166611,0.03741 0.297497,0.188173 0.380233,0.365292c0.091068,0.194949 0.133986,0.443531 0.161472,0.715252c0.02995,0.296046 0.034718,0.616653 0.037036,1.307016c0.001219,0.363262 0,0.736736 0,1.120451c0,0.393958 0,0.798128 0,1.21254c0,0.424654 -0.000848,0.859535 0,1.759978c0.000437,0.467279 0.000331,0.955371 0.023446,1.473471c0.024969,0.559882 0.075013,1.171664 0.164068,1.841839c0.099095,0.745745 0.225583,1.578893 0.680591,3.50631c0.26768,1.133863 0.609975,2.354194 1.003971,3.646831c0.414527,1.360008 0.880079,2.756022 1.402404,4.162558c0.528842,1.42407 1.054347,2.861038 2.368213,5.49276c0.633117,1.268139 1.341048,2.449623 2.093858,3.570091c0.754505,1.122996 1.581679,2.201635 2.468885,3.256979c0.916453,1.090146 1.905072,2.186428 4.118305,4.428595c1.198969,1.214632 2.480621,2.448328 3.812714,3.71898c1.367037,1.303972 2.768541,2.615079 4.187715,3.930777c1.420711,1.317118 2.836865,2.617359 5.599869,5.140771c1.324411,1.209557 2.613798,2.383095 3.872614,3.531728c1.236694,1.128446 2.458049,2.244197 3.66947,3.356733c1.211182,1.112333 2.429649,2.230817 4.900759,4.537749c1.273625,1.188994 2.569582,2.412104 3.893437,3.659103c1.349896,1.271543 2.724643,2.567427 4.127842,3.880142c1.426778,1.334793 2.874537,2.693771 5.868396,5.421813c1.526177,1.390673 3.071244,2.772431 4.616124,4.144134c1.528244,1.356917 3.032882,2.679344 4.498975,3.959942c1.411703,1.233087 2.758765,2.40411 5.208628,4.515921c1.076521,0.928 2.054702,1.766973 2.940265,2.520227c0.795197,0.676374 1.507209,1.276929 2.143345,1.801947c0.560289,0.462439 1.047618,0.87148 1.861227,1.476188c0.318731,0.236887 0.592901,0.420751 0.822962,0.560241c0.184758,0.112011 0.333302,0.189641 0.447934,0.237886c0.081411,0.034256 0.179539,0.007869 0.175936,0.054585c-0.000768,0.009868 -0.032612,-0.001249 -0.070311,-0.009212c-0.050389,-0.010648 -0.111745,-0.029947 -0.179698,-0.064452c-0.077623,-0.03944 -0.167803,-0.087154 -0.328718,-0.267427c-0.093174,-0.10436 -0.174903,-0.238105 -0.256526,-0.380656c-0.084008,-0.146704 -0.16073,-0.300652 -0.233107,-0.45432c-0.069675,-0.14789 -0.131323,-0.288911 -0.233796,-0.529327c-0.039421,-0.092494 -0.071397,-0.167376 -0.095055,-0.228706c-0.019022,-0.049276 -0.033063,-0.090589 -0.040374,-0.127406c-0.006756,-0.033912 -0.008663,-0.069573 -0.009246,-0.15551c-0.000371,-0.056302 0,-0.122815 0,-0.19954c0,-0.086998 0,-0.184176 0,-0.291628c0,-0.117663 0,-0.245568 0,-0.532075c0,-0.158633 0,-0.327445 0,-0.506531c0,-0.189297 0,-0.388806 0,-0.598588c0,-0.219993 0.000159,-0.450229 0,-0.941365c-0.000079,-0.261119 0,-0.533511 -0.003921,-0.818113c-0.004106,-0.297936 -0.012001,-0.610298 -0.02734,-0.937774c-0.016107,-0.344151 -0.033592,-0.706617 -0.113441,-1.484401c-0.043156,-0.420439 -0.10181,-0.862205 -0.180996,-1.324582c-0.08369,-0.488747 -0.191037,-1.001727 -0.329434,-1.536393c-0.146768,-0.567018 -0.300848,-1.174333 -0.791727,-2.425766c-0.275283,-0.701824 -0.68883,-1.515019 -1.406325,-2.405141c-0.9723,-1.206263 -2.473044,-2.606429 -4.531508,-4.311432c-2.657061,-2.200792 -6.095834,-4.838276 -15.764784,-11.531257c-6.286394,-4.351543 -13.491653,-9.091158 -21.32412,-14.241984c-8.249114,-5.424811 -16.726805,-10.93612 -25.19933,-16.442995c-8.255313,-5.365698 -16.105212,-10.402859 -29.580387,-19.283345c-5.304796,-3.496005 -9.632047,-6.405413 -13.077562,-8.808586c-2.706231,-1.887524 -4.755488,-3.373424 -6.22562,-4.563136c-1.056625,-0.855086 -1.774557,-1.508805 -2.544123,-2.488532c-0.30314,-0.385933 -0.559017,-0.773131 -0.79431,-1.131194c-0.215874,-0.328507 -0.403586,-0.634858 -0.559931,-0.919382c-0.138357,-0.251782 -0.27066,-0.468762 -0.381968,-0.848606c-0.039447,-0.134619 -0.043527,-0.262571 0.014319,-0.322324c0.07051,-0.072837 0.221517,-0.070947 0.412792,-0.046044c0.25593,0.033319 0.579191,0.114884 1.453787,0.368368c0.563746,0.163395 1.203221,0.362966 1.910265,0.589376c0.766466,0.245428 1.581149,0.515415 2.433729,0.810415c0.883974,0.305867 1.790956,0.617777 3.613624,1.328844c0.912042,0.355815 1.82733,0.739249 2.75797,1.16189c0.970154,0.44058 1.984377,0.938055 3.054858,1.502637c1.153402,0.608315 2.398137,1.287234 5.183169,2.963306c1.588156,0.955777 3.281739,2.026374 5.069304,3.190981c1.878434,1.223812 3.817549,2.529767 5.7959,3.918504c2.023547,1.420479 4.079904,2.863442 8.088411,6.022134c1.995041,1.572086 3.930447,3.20878 5.818047,4.873188c1.86491,1.644392 3.670092,3.317777 5.411759,5.01132c1.708631,1.66141 3.372701,3.302289 6.421665,6.657898c1.458648,1.605358 2.828785,3.218429 4.106993,4.837902c1.240112,1.571211 2.393885,3.153446 3.435091,4.764206c1.013548,1.567979 2.004048,3.119284 3.453901,6.428692c0.706898,1.613539 1.252616,3.286753 1.716261,4.948398c0.452571,1.621971 0.802165,3.231825 1.075567,4.801054c0.262249,1.50526 0.478719,2.94941 0.680591,5.599182c0.08973,1.177971 0.124303,2.2785 0.072934,3.310704c-0.049382,0.992156 -0.184705,1.965544 -0.427111,2.914701c-0.252102,0.987175 -0.593563,2.023548 -1.671382,4.177563c-0.622997,1.245062 -1.39443,2.526754 -2.241023,3.866309c-0.887895,1.404928 -1.851346,2.819131 -2.873875,4.22548c-1.032808,1.420479 -2.071074,2.839147 -4.289578,5.38089c-1.060758,1.215288 -2.150339,2.32634 -3.255393,3.361354c-1.094562,1.025178 -2.232069,1.986685 -3.411645,2.900883c-1.201936,0.931529 -2.460116,1.85013 -5.197064,3.629125c-1.459297,0.948516 -2.990786,1.877485 -4.558848,2.808795c-1.579109,0.937868 -3.160709,1.845758 -4.722929,2.716707c-1.514746,0.844468 -2.963539,1.650528 -5.620692,3.001496c-1.151481,0.585441 -2.193072,1.081512 -3.130375,1.491895c-0.829532,0.3632 -1.568062,0.655671 -2.224094,0.865671c-0.569323,0.18224 -1.06856,0.353426 -1.879732,0.3711c-0.321618,0.007026 -0.604001,-0.050431 -0.807331,-0.188798c-0.180228,-0.122628 -0.30412,-0.337032 -0.33856,-0.584786c-0.0395,-0.284071 -0.006054,-0.6419 0.277787,-1.443462c0.177539,-0.501347 0.458531,-1.05169 0.829479,-1.666859c0.440318,-0.730178 1.020357,-1.544793 1.743588,-2.458835c0.846354,-1.069645 1.859982,-2.282216 4.51646,-5.083485c1.605376,-1.692871 3.430614,-3.497254 5.416965,-5.430354c2.110693,-2.054104 4.343093,-4.171645 6.667051,-6.332826c2.372399,-2.206226 4.77186,-4.427299 9.618602,-8.701665c2.356477,-2.078195 4.68723,-4.068737 6.982165,-5.998245c2.251726,-1.893192 4.480775,-3.728177 6.685265,-5.519366c2.175428,-1.767566 4.335198,-3.500658 8.613915,-6.900749c2.122787,-1.68686 4.248383,-3.367694 6.38839,-5.046622c2.158843,-1.693714 4.351571,-3.400232 6.591508,-5.120302c2.288047,-1.757027 4.635676,-3.555835 9.590824,-7.228194c2.598433,-1.925746 5.272554,-3.867761 7.983527,-5.826342c2.716404,-1.962484 5.416912,-3.89624 8.069469,-5.789494c2.574325,-1.837436 5.04668,-3.5912 9.556093,-6.802525c1.989981,-1.417138 3.797269,-2.708088 5.429999,-3.880127c1.469218,-1.054672 2.78184,-2.001611 3.945548,-2.848703c1.026662,-0.747337 1.926081,-1.399339 3.356673,-2.480351c0.558885,-0.422297 1.020913,-0.781796 1.393291,-1.08668c0.298517,-0.244413 0.528207,-0.441954 0.690155,-0.6078c0.117626,-0.120458 0.221212,-0.210625 0.231491,-0.352005c0.003391,-0.0467 -0.03399,-0.087545 -0.082047,-0.098224c-0.065012,-0.014442 -0.154504,0.007416 -0.261719,0.04912c-0.133284,0.051852 -0.291708,0.12981 -0.669014,0.390195c-0.23324,0.160975 -0.483169,0.361514 -0.752651,0.584786c-0.288556,0.239057 -0.587205,0.500067 -0.893299,0.778174c-0.314386,0.285648 -0.632613,0.5779 -1.247742,1.195146c-0.301987,0.303041 -0.59049,0.609517 -0.868555,0.9117c-0.269375,0.292721 -0.524815,0.579571 -0.766957,0.856459c-0.229769,0.262743 -0.443537,0.51273 -0.824127,0.960476c-0.165445,0.194653 -0.315234,0.372006 -0.454452,0.531075c-0.128223,0.146485 -0.249506,0.280855 -0.36851,0.402124c-0.11458,0.116757 -0.22863,0.230595 -0.479195,0.431134c-0.132197,0.105812 -0.274488,0.205317 -0.421892,0.30237c-0.148941,0.098068 -0.300636,0.190062 -0.453153,0.274734c-0.149073,0.082767 -0.293536,0.163285 -0.571787,0.275593c-0.124726,0.050338 -0.242618,0.085765 -0.351581,0.112042c-0.099453,0.023982 -0.190852,0.038846 -0.273455,0.04759c-0.073676,0.007807 -0.1389,0.010227 -0.243068,0.010914c-0.040957,0.000265 -0.084511,0 -0.141947,0c-0.082603,0 -0.201687,0 -0.36851,0c-0.225848,0 -0.522007,-0.00025 -1.370428,0c-0.572528,0.000172 -1.246629,0.000359 -2.019652,0.009212c-0.869429,0.009961 -1.832668,0.028947 -2.886883,0.064452c-1.14299,0.038487 -2.372611,0.080628 -5.076669,0.267411c-1.471735,0.101659 -3.019265,0.23912 -4.640895,0.40367c-1.695729,0.172076 -3.462219,0.376456 -5.297192,0.615482c-1.904304,0.248051 -3.876561,0.51031 -8.002761,1.197879c-2.1594,0.359827 -4.381322,0.768415 -6.657924,1.286204c-2.350304,0.534542 -4.765356,1.180579 -7.22828,2.004531c-2.55268,0.853993 -5.213105,1.77072 -10.565402,4.554112c-2.844813,1.47942 -5.673385,3.270125 -8.505693,5.178634c-2.849157,1.919844 -5.618811,3.955961 -8.286919,6.04429c-2.585372,2.02358 -5.04721,3.981005 -9.250529,7.877604c-1.818998,1.686251 -3.384451,3.302695 -4.737248,4.819478c-1.217355,1.364927 -2.260257,2.66729 -3.15904,3.89855c-0.822935,1.127337 -1.535675,2.219013 -2.810346,4.243045c-0.601723,0.95548 -1.184146,1.888898 -1.748793,2.805719c-0.554606,0.900505 -1.095993,1.794546 -1.615973,2.695223c-0.518563,0.898225 -1.039961,1.799823 -1.988537,3.708238c-0.485368,0.976511 -0.938946,1.98414 -1.377687,2.994517c-0.431602,0.99392 -0.832989,1.970104 -1.205791,2.911625c-0.351555,0.887874 -0.672299,1.712575 -1.178318,3.132493c-0.200097,0.56149 -0.353449,1.02852 -0.475288,1.399792c-0.09218,0.280917 -0.144013,0.485063 -0.201833,0.589392c-0.022028,0.039736 -0.044004,-0.00267 -0.046296,-0.283774c-0.001934,-0.2367 0.002451,-0.543457 0.02734,-0.927063c0.030546,-0.470714 0.090472,-1.03592 0.191421,-1.700631c0.118355,-0.779235 0.269216,-1.682598 0.794032,-3.85285c0.315088,-1.302957 0.714263,-2.722328 1.161522,-4.250025c0.475897,-1.625515 1.001441,-3.320963 1.567797,-5.069668c0.581099,-1.794218 1.175762,-3.615932 2.479309,-7.222714c0.645621,-1.78638 1.327126,-3.565625 2.070425,-5.358219c0.772467,-1.862964 1.637803,-3.798531 2.617335,-5.827872c1.056373,-2.188567 2.236334,-4.548085 5.150755,-9.790375c1.668415,-3.001043 3.534822,-6.180486 5.536777,-9.529974c2.092692,-3.501282 4.290373,-7.086268 6.568088,-10.717953c2.301744,-3.669985 4.609342,-7.338628 9.308388,-14.371779c2.257263,-3.378467 4.48904,-6.589745 6.659222,-9.648152c2.073644,-2.922367 4.074804,-5.666882 5.987321,-8.229937c1.789698,-2.398458 3.457583,-4.613427 6.45176,-8.385119c1.265386,-1.59396 2.406601,-2.983744 3.446801,-4.17636c0.920825,-1.055734 1.765643,-1.962422 2.563966,-2.712117c0.722847,-0.678825 1.408524,-1.292059 2.814956,-2.150173c0.688751,-0.420236 1.409769,-0.756783 2.142047,-1.006864c0.721416,-0.24638 1.45531,-0.402671 2.181124,-0.417488c0.7158,-0.014614 1.475815,-0.001671 2.766368,0.7422c0.675028,0.389087 1.272856,1.018027 1.824297,1.725176c0.572316,0.73391 1.075541,1.583406 1.519634,2.498759c0.451776,0.931217 0.879788,1.903715 1.430645,3.962003c0.270408,1.010408 0.440808,2.037757 0.57033,3.051303c0.12719,0.995201 0.199223,1.978941 0.242194,2.940807c0.041832,0.936072 0.052084,1.84454 0.055581,3.558146c0.001616,0.798128 0,1.555333 0,2.271599c0,0.675344 0,1.309749 0,1.903231c0,0.552544 0.000185,1.064165 0,1.964623c-0.000079,0.389508 0.000397,0.742216 -0.003921,1.06212c-0.003921,0.291316 -0.010941,0.558274 -0.02734,0.804279c-0.015366,0.230189 -0.029883,0.450854 -0.113441,0.862252c-0.041991,0.206784 -0.101969,0.415114 -0.188812,0.618542c-0.092273,0.216152 -0.219305,0.434132 -0.384141,0.646178c-0.183301,0.235779 -0.407083,0.486749 -1.018555,0.952295c-0.363635,0.276857 -0.787541,0.535197 -1.248775,0.799673c-0.488945,0.28037 -1.009627,0.549968 -1.553491,0.80887c-0.554858,0.264133 -1.117637,0.526251 -2.261687,0.949562c-0.558487,0.206644 -1.122035,0.379891 -1.692815,0.549484c-0.586702,0.174308 -1.201247,0.344089 -1.849067,0.53106c-0.691983,0.199711 -1.439653,0.407089 -3.113579,0.965941c-0.953755,0.31842 -1.987941,0.694095 -3.101763,1.146542c-1.210864,0.49187 -2.511511,1.072643 -3.898656,1.763569c-1.500374,0.747322 -3.117367,1.574615 -6.599906,3.740964c-1.939936,1.206763 -3.970768,2.602838 -6.114935,4.137998c-2.282775,1.634383 -4.673295,3.434472 -7.177468,5.390446c-2.646623,2.067219 -5.423058,4.275927 -11.303879,9.231008c-3.153688,2.657235 -6.375197,5.464344 -9.655506,8.329706c-3.299926,2.882506 -6.56581,5.763404 -9.772695,8.57835c-3.099948,2.721079 -6.032252,5.341935 -11.389529,9.866771c-2.293902,1.937456 -4.370857,3.616494 -6.252961,5.075804c-1.693159,1.312809 -3.254333,2.460428 -4.705987,3.482593c-1.357381,0.955777 -2.673022,1.829036 -5.245678,3.54998c-1.317576,0.881379 -2.652477,1.783055 -3.988505,2.692147c-1.322689,0.900021 -2.612911,1.784116 -3.855685,2.636891c-1.178941,0.808979 -2.275145,1.566762 -4.164587,2.8569c-0.760691,0.519412 -1.402656,0.952685 -1.935009,1.310764c-0.433019,0.291269 -0.77852,0.521114 -1.044319,0.702979c-0.199329,0.136383 -0.356853,0.217245 -0.493091,0.373817c-0.035646,0.04097 -0.042825,0.089168 -0.020836,0.112042c0.030996,0.032242 0.092949,0.039767 0.166677,0.04759c0.088935,0.009446 0.192137,0.010227 0.4329,0.010914c0.134409,0.00039 0.276634,0 0.4258,0c0.155246,0 0.315697,0 0.480494,0c0.168267,0 0.339143,0 0.685227,0c0.173764,0 0.348402,0 0.524776,0c0.17897,0 0.36141,0 0.548208,0c0.191991,0 0.390062,0 0.807914,0c0.221358,0 0.451405,0 0.690142,0c0.247413,0 0.503502,0 0.768268,0c0.273455,0 0.555586,0 1.145905,0c0.307736,0 0.621566,0 0.938853,0c0.318161,0 0.634587,0 0.946668,0c0.30514,0 0.60073,0 1.152846,0c0.251745,0 0.486137,0 0.703163,0c0.19966,0 0.381968,0 0.54691,0c0.147576,0 0.277787,0.000687 0.486137,0c0.078418,-0.000265 0.142582,0.002873 0.19011,-0.013818c0.038427,-0.01349 0.067701,-0.048058 0.080736,-0.096694c0.016915,-0.063125 0.016611,-0.15145 0.018518,-0.401109c0.001298,-0.168844 0.001325,-0.369289 0.02734,-0.598604c0.029751,-0.262306 0.088313,-0.557181 0.191421,-0.874868c0.116461,-0.358844 0.265958,-0.765152 0.794032,-1.596255c0.313525,-0.493447 0.714554,-0.984412 1.149799,-1.510303c0.46387,-0.560491 0.96671,-1.132474 1.485763,-1.731327c0.533969,-0.616059 1.091211,-1.229402 2.139014,-2.556747c0.521093,-0.660121 1.013138,-1.341366 1.476636,-2.036757c0.457843,-0.686898 0.885139,-1.38716 1.273519,-2.101241c0.381862,-0.702105 0.755671,-1.399698 1.300991,-2.854152c0.264514,-0.705509 0.466771,-1.425741 0.636759,-2.139603c0.166664,-0.699919 0.294093,-1.397325 0.394552,-2.084347c0.098168,-0.671331 0.175327,-1.330234 0.270846,-2.59767c0.045421,-0.602632 0.072245,-1.18303 0.106778,-1.735933c0.032692,-0.523534 0.065383,-1.015436 0.122408,-1.468865c0.052495,-0.417441 0.07243,-0.826888 0.349555,-1.399792c0.120607,-0.249347 0.329791,-0.439393 0.597696,-0.509576c0.337819,-0.088497 0.798483,-0.024138 1.37117,0.116648c0.727456,0.178821 1.61808,0.479083 3.963178,1.41617c1.504983,0.601383 3.216939,1.33957 5.123998,2.208661c2.10419,0.95893 4.379083,2.05387 6.803765,3.304568c2.589346,1.335652 5.334918,2.761127 11.077011,6.254056c3.059388,1.861028 6.153958,3.913555 9.28179,6.064243c3.159834,2.172688 6.283983,4.422553 9.344259,6.718103c3.002999,2.252597 5.917328,4.450158 11.178888,8.876286c2.399951,2.01888 4.59705,4.008375 6.63318,5.947595c1.94036,1.848006 3.760021,3.693296 5.492495,5.533184c1.702776,1.808348 3.362767,3.650109 6.683251,7.449202c1.716737,1.96417 3.44794,3.97718 5.183884,6.002836c1.723731,2.011385 3.409075,3.992387 5.035447,5.919991c1.554551,1.842479 3.019663,3.57376 5.551255,6.666063c1.057658,1.291918 1.969396,2.432449 2.74883,3.43964c0.677147,0.875008 1.253994,1.649404 1.741005,2.343733c0.430502,0.613764 0.808258,1.176504 1.442196,2.232035c0.304292,0.506656 0.590411,1.015061 0.86074,1.516439c0.260845,0.483798 0.50076,0.953044 0.712276,1.405928c0.197051,0.421938 0.389995,0.806934 0.597246,1.511693c0.082948,0.282072 0.123216,0.536478 0.111984,0.750538c-0.00967,0.184457 -0.063873,0.347961 -0.153656,0.465062c-0.091214,0.118943 -0.220894,0.214778 -0.537055,0.319264c-0.178877,0.059112 -0.375822,0.086998 -0.579469,0.112042c-0.207303,0.025481 -0.41519,0.039065 -0.618519,0.047559c-0.194534,0.008119 -0.376166,0.010242 -0.682896,0.010929c-0.117785,0.00025 -0.212999,0 -0.289086,0c-0.060482,0 -0.108805,0 -0.148464,0c-0.034414,0 -0.067132,0.000156 -0.141205,0c-0.047607,-0.000094 -0.103056,-0.000125 -0.165366,-0.004622c-0.068509,-0.004934 -0.142476,-0.014208 -0.220073,-0.032226c-0.081941,-0.019017 -0.169817,-0.039065 -0.337964,-0.133682c-0.089253,-0.050213 -0.174373,-0.118475 -0.256526,-0.194949c-0.083504,-0.077724 -0.161763,-0.164972 -0.233107,-0.25937c-0.070761,-0.093618 -0.140728,-0.188548 -0.233796,-0.398392c-0.044216,-0.099707 -0.073702,-0.205348 -0.098976,-0.311582c-0.025698,-0.108014 -0.045461,-0.22143 -0.067715,-0.339218c-0.023446,-0.124033 -0.044004,-0.257653 -0.122687,-0.542973c-0.044454,-0.161193 -0.105917,-0.337219 -0.184891,-0.534136c-0.091876,-0.22908 -0.210641,-0.490668 -0.3568,-0.792007c-0.170638,-0.351771 -0.37463,-0.756815 -0.905141,-1.743584c-0.323791,-0.602273 -0.701229,-1.282675 -1.141984,-2.047515c-0.49978,-0.867295 -1.077713,-1.836421 -1.743601,-2.913186c-0.745974,-1.206263 -1.583666,-2.547926 -3.625201,-5.612812c-1.182199,-1.774779 -2.507458,-3.702446 -4.006745,-5.769571c-1.639671,-2.26067 -3.478194,-4.677598 -5.545877,-7.233799c-2.245527,-2.7761 -4.702357,-5.766074 -10.558461,-12.066064c-3.264453,-3.511899 -6.82427,-7.084223 -10.552686,-10.765543c-3.824954,-3.776641 -7.741678,-7.536887 -11.677741,-11.262816c-3.88337,-3.676075 -7.681222,-7.228959 -14.808725,-13.78512c-3.217561,-2.959636 -6.22468,-5.698936 -9.065611,-8.237618c-2.689885,-2.403704 -5.284423,-4.6756 -7.831169,-6.828599c-2.504702,-2.117463 -5.016359,-4.215066 -10.303829,-8.297824c-2.778926,-2.14577 -5.674087,-4.2783 -8.621585,-6.421869c-2.954478,-2.148643 -5.89767,-4.243639 -8.785652,-6.27451c-2.787523,-1.96022 -5.445259,-3.811677 -10.227425,-7.086299c-2.049668,-1.403523 -3.877952,-2.641153 -5.50292,-3.728177c-1.435626,-0.960367 -2.705727,-1.797762 -3.830941,-2.521789c-0.992646,-0.63873 -1.873771,-1.202172 -3.398346,-2.106518c-0.66602,-0.395067 -1.284049,-0.742997 -1.852975,-1.048302c-0.515821,-0.276811 -0.98438,-0.514026 -1.407623,-0.70757c-0.372537,-0.170358 -0.695785,-0.329553 -1.224614,-0.461143c-0.193819,-0.04823 -0.356231,-0.064374 -0.467473,-0.015348c-0.088193,0.038862 -0.142211,0.141536 -0.147139,0.260916c-0.006133,0.148671 0.035076,0.331832 0.180559,0.777674c0.089372,0.273875 0.205926,0.572982 0.33856,0.900958c0.144953,0.358438 0.310174,0.741951 0.494826,1.149617c0.197157,0.435271 0.409587,0.895837 0.902823,1.871848c0.264752,0.523862 0.55005,1.059387 0.843798,1.608543c0.298861,0.558696 0.603498,1.119765 0.906307,1.682207c0.300239,0.557665 0.59971,1.102746 1.143586,2.166536c0.255228,0.499208 0.489898,0.981976 0.70707,1.447381c0.207515,0.444702 0.398632,0.874758 0.57425,1.290825c0.168346,0.398861 0.327089,0.783873 0.599564,1.525308c0.129098,0.351302 0.244936,0.694111 0.355489,1.023757c0.105864,0.315688 0.204257,0.61812 0.300809,0.904034c0.091293,0.270362 0.171539,0.528249 0.356496,0.97139c0.082339,0.197276 0.169989,0.372615 0.260434,0.526469c0.083517,0.142082 0.170426,0.266006 0.260434,0.369898c0.083928,0.096881 0.167565,0.185878 0.347237,0.29742c0.084286,0.052321 0.172863,0.086608 0.260434,0.112042c0.086153,0.025013 0.173459,0.039221 0.260434,0.04759c0.086683,0.008338 0.173618,0.010227 0.347237,0.010914c0.08667,0.000343 0.172466,0 0.256526,0c0.081451,0 0.159445,0 0.233081,0c0.068443,0 0.130793,-0.000656 0.233809,0c0.039646,0.00025 0.075013,0.000484 0.106778,0.013802c0.035805,0.015005 0.075159,0.048636 0.122408,0.09671c0.061939,0.063031 0.136039,0.15209 0.349555,0.401109c0.147934,0.172528 0.34872,0.40036 0.644575,0.686086c0.40299,0.389212 0.960669,0.877366 1.699305,1.487274c0.937144,0.773818 2.112972,1.71601 5.324374,4.136624c2.058238,1.551414 4.401191,3.265597 6.956123,5.13106c2.709145,1.978051 5.52206,4.015729 8.378079,6.079591c2.840508,2.052652 5.611724,4.047362 10.708938,7.71933c2.226386,1.603859 4.232832,3.050741 6.043313,4.355946c1.637631,1.180594 3.125633,2.2533 4.488537,3.232419c1.259676,0.904955 2.438591,1.753982 4.659983,3.326224c1.079726,0.7642 2.151227,1.51608 3.220237,2.242433c1.057327,0.718421 2.110296,1.413297 3.165543,2.067469c1.042518,0.646287 2.072968,1.290404 4.176164,2.341172c1.033603,0.516399 2.083221,0.961616 3.1408,1.359884c1.058479,0.398595 2.136881,0.745417 3.23457,1.046787c1.112074,0.305321 2.249527,0.590766 4.620628,1.004131c1.228217,0.214123 2.482634,0.379282 3.747596,0.498834c1.260829,0.119162 2.509974,0.188189 3.731992,0.17651c1.184186,-0.011304 2.338012,0.004387 4.384501,-0.504798c0.924719,-0.23008 1.757907,-0.607472 2.501444,-1.043711c0.702421,-0.412117 1.326318,-0.899303 1.884223,-1.412064c0.530803,-0.487842 0.99956,-1.003257 1.835768,-1.978269c0.380617,-0.443781 0.737338,-0.867873 1.070348,-1.284689c0.324374,-0.406012 0.636216,-0.819549 0.929753,-1.257053c0.30167,-0.44962 0.61036,-0.929374 1.182941,-2.062847c0.320426,-0.63428 0.626308,-1.334215 0.93884,-2.072075c0.323102,-0.762841 0.637461,-1.550352 0.946681,-2.348339c0.308001,-0.794896 0.604346,-1.580751 1.152846,-3.083373c0.253745,-0.69511 0.487779,-1.352389 0.710978,-1.969229c0.209741,-0.579633 0.40756,-1.123262 0.601591,-1.628482c0.181765,-0.473275 0.34668,-0.920787 0.713018,-1.68903c0.166399,-0.348929 0.345303,-0.666647 0.528657,-0.963896c0.180202,-0.292143 0.373888,-0.572685 0.575549,-0.853384c0.208602,-0.290347 0.435933,-0.586316 0.921355,-1.252447c0.270673,-0.371444 0.555149,-0.774255 0.855521,-1.203343c0.316585,-0.452228 0.645754,-0.928266 0.988327,-1.424351c0.355078,-0.514197 0.720171,-1.045975 1.483895,-2.147441c0.394208,-0.568532 0.798006,-1.145792 1.203181,-1.738993c0.412064,-0.603288 0.826247,-1.220705 1.234442,-1.858733c0.414262,-0.647489 0.836605,-1.304144 1.613523,-2.712273c0.396036,-0.717781 0.766745,-1.460481 1.125081,-2.208661c0.354628,-0.740389 0.687241,-1.476984 1.000037,-2.199465c0.301113,-0.695501 0.582993,-1.360836 1.05795,-2.584024c0.208178,-0.53615 0.388724,-1.029316 0.541691,-1.485743c0.140675,-0.419705 0.259706,-0.814522 0.354178,-1.191055c0.089915,-0.35836 0.170241,-0.709225 0.261586,-1.41617c0.04668,-0.361295 0.073887,-0.730927 0.08724,-1.102028c0.013246,-0.368493 0.010756,-0.731927 -0.014306,-1.083619c-0.024135,-0.338843 -0.040878,-0.672018 -0.217609,-1.225155c-0.079477,-0.248769 -0.198164,-0.463563 -0.338574,-0.638512c-0.138185,-0.172185 -0.30763,-0.310567 -0.4948,-0.417472c-0.195117,-0.111449 -0.413203,-0.203365 -0.902836,-0.30835c-0.268422,-0.057551 -0.562276,-0.087794 -0.882861,-0.112042c-0.353091,-0.026699 -0.744809,-0.039533 -1.179762,-0.047574c-0.483514,-0.008931 -1.020887,-0.010227 -2.277901,-0.010914c-0.727191,-0.00039 -1.511659,0 -2.341271,0c-0.862621,0 -1.746065,0 -2.638171,0c-0.888663,0 -1.761695,-0.001671 -3.412228,0c-0.757154,0.000765 -1.47404,-0.002264 -2.160301,0.041438c-0.669332,0.042625 -1.334213,0.126172 -1.996206,0.290082c-0.686393,0.169952 -1.41475,0.387338 -2.933032,1.203343c-0.869085,0.467092 -1.766808,1.078935 -2.712377,1.749735c-0.99601,0.706586 -2.011757,1.483776 -3.048354,2.302295c-1.058241,0.835616 -2.118893,1.698398 -4.222473,3.451741c-1.038743,0.865796 -2.083658,1.746441 -3.144707,2.687541c-1.121161,0.994404 -2.307811,2.096354 -3.574415,3.341401c-1.39806,1.374279 -2.937483,2.925334 -6.447124,6.761586c-2.065881,2.258109 -4.287989,4.791842 -6.680072,7.537715c-2.550693,2.927941 -5.222934,6.03831 -8.008258,9.296662c-2.886392,3.376593 -5.846103,6.860154 -11.933552,14.033436c-3.090742,3.642053 -6.179749,7.284121 -9.241402,10.892918c-3.006973,3.544344 -5.932349,6.992494 -8.749199,10.312753c-2.681434,3.160628 -5.200508,6.129898 -9.644061,11.36755c-1.879017,2.214797 -3.538411,4.170724 -5.00159,5.895384c-1.290434,1.521061 -2.431557,2.866127 -3.446814,4.062804c-0.912811,1.075922 -1.746608,2.058788 -3.27101,3.855582c-0.73253,0.863423 -1.450329,1.709484 -2.147266,2.530969c-0.670034,0.78979 -1.307058,1.540672 -1.905046,2.245525c-0.552831,0.651611 -1.054665,1.242673 -1.879746,2.21564c-0.313459,0.369633 -0.564846,0.663165 -0.752637,0.896367c-0.138012,0.171373 -0.239624,0.288411 -0.268249,0.380656c-0.014849,0.047871 0.020585,0.082095 0.152782,0.08731c0.095439,0.003778 0.208443,-0.000437 0.33856,-0.009212c0.147735,-0.009993 0.313061,-0.02926 0.494826,-0.064452c0.200336,-0.038784 0.421005,-0.084375 0.902823,-0.267427c0.271786,-0.103267 0.557295,-0.240947 0.859428,-0.399048c0.323075,-0.169062 0.661397,-0.364636 1.015681,-0.583256c0.375054,-0.231422 0.768122,-0.482767 1.597309,-1.064181c0.44502,-0.31205 0.902042,-0.650955 1.380297,-0.994576c0.494005,-0.354956 1.004183,-0.716657 1.536536,-1.068271c0.544089,-0.359359 1.098218,-0.732333 2.291796,-1.347939c0.609512,-0.314361 1.242867,-0.583412 1.885534,-0.833445c0.644535,-0.250752 1.296104,-0.47315 1.948017,-0.676874c0.645674,-0.201788 1.285321,-0.387432 2.532559,-0.706727c0.59816,-0.153137 1.180371,-0.289411 1.744886,-0.419002c0.546672,-0.125501 1.076428,-0.241946 1.588633,-0.35455c0.4948,-0.108763 0.973399,-0.207503 1.875109,-0.42022c0.42678,-0.100675 0.84348,-0.204036 1.247463,-0.348429c0.408898,-0.146142 0.821942,-0.3375 1.231846,-0.597058c0.440238,-0.278762 0.912188,-0.617418 1.861214,-1.612618c0.557282,-0.58438 1.119717,-1.298632 1.734474,-2.079741c0.6681,-0.848903 1.374124,-1.780994 2.140736,-2.770417c0.817835,-1.0555 1.676495,-2.188723 3.648355,-4.529552c1.062347,-1.261129 2.201351,-2.531438 3.383007,-3.826416c1.204996,-1.320553 2.438273,-2.635767 3.679894,-3.94614c1.233661,-1.301973 2.457201,-2.573126 4.801201,-5.017971c1.105013,-1.152553 2.169546,-2.266915 3.205918,-3.355234c1.021615,-1.072799 2.038992,-2.144568 3.06527,-3.226283c1.047339,-1.103917 2.126655,-2.243963 4.435433,-4.674164c1.247914,-1.313558 2.55525,-2.686948 3.91169,-4.108832c1.393702,-1.460949 2.815459,-2.948145 4.255443,-4.449564c1.4456,-1.507274 2.885955,-3.009771 5.722542,-5.93754c1.369554,-1.413578 2.702998,-2.780285 3.995035,-4.09962c1.245172,-1.271496 2.442763,-2.488423 3.588721,-3.648361c1.089131,-1.102402 2.118893,-2.142866 3.990982,-4.019305c0.834698,-0.836646 1.611668,-1.612509 2.34649,-2.332991c0.698235,-0.684634 1.376336,-1.337775 2.049589,-1.964623c0.671186,-0.624912 1.355221,-1.254868 2.838136,-2.52399c0.802165,-0.686523 1.656785,-1.389393 2.558721,-2.101225c0.932534,-0.735986 1.902635,-1.46999 2.910328,-2.184117c1.022238,-0.724432 2.055179,-1.45956 4.224778,-2.706824c1.078614,-0.620072 2.180249,-1.165137 3.290548,-1.657647c1.104205,-0.489809 2.220783,-0.919975 3.345229,-1.28928c1.118723,-0.367415 2.240255,-0.714174 4.504909,-1.146042c1.123306,-0.214216 2.244467,-0.346322 3.346527,-0.443562c1.074163,-0.094774 2.115131,-0.143175 3.112148,-0.158102c0.944721,-0.014146 1.830019,-0.015832 3.379828,0.090043c0.653198,0.044623 1.228482,0.111464 1.731865,0.204146c0.445789,0.08208 0.840129,0.186705 1.184981,0.323854c0.317883,0.126406 0.614519,0.271861 1.134327,0.665788c0.266885,0.202256 0.521345,0.440596 0.769553,0.692222c0.248446,0.251876 0.48301,0.517695 0.699268,0.793522c0.209926,0.26777 0.414792,0.527078 0.701441,1.072362c0.127932,0.243398 0.218457,0.486952 0.285165,0.716782c0.06133,0.211328 0.098976,0.412257 0.121097,0.597058c0.020002,0.167048 0.026042,0.317858 0.027791,0.562099c0.000662,0.092603 0,0.167813 0,0.228706c0,0.04962 0,0.091058 0,0.12739c0,0.034271 0,0.069573 0,0.155525c0,0.056115 0,0.121426 0,0.194934c0,0.080659 0,0.16747 0,0.259386c0,0.096023 0.000159,0.195106 0,0.398392c-0.000079,0.102315 0.000132,0.204708 -0.003921,0.30696c-0.004053,0.102409 -0.011657,0.205161 -0.02734,0.306976c-0.015842,0.102924 -0.033063,0.20972 -0.113441,0.409306c-0.042573,0.105687 -0.102181,0.208033 -0.165366,0.316172c-0.067556,0.115649 -0.143245,0.237137 -0.220073,0.371444c-0.082736,0.144643 -0.1744,0.300059 -0.337964,0.676702c-0.092035,0.211937 -0.176599,0.449355 -0.264342,0.70604c-0.094128,0.275359 -0.188335,0.572779 -0.287788,0.890216c-0.105731,0.337438 -0.214112,0.696828 -0.460677,1.473471c-0.133151,0.419408 -0.275204,0.854742 -0.425787,1.301567c-0.153815,0.456365 -0.313618,0.916509 -0.48052,1.375232c-0.166187,0.456755 -0.328745,0.909139 -0.685201,1.757246c-0.169446,0.40317 -0.348482,0.790383 -0.54042,1.168041c-0.195753,0.385152 -0.41413,0.775176 -0.657569,1.177238c-0.261269,0.431509 -0.554408,0.892058 -1.26165,1.918236c-0.408646,0.59292 -0.869615,1.23418 -1.375091,1.937003c-0.552368,0.767994 -1.157137,1.601455 -1.812587,2.507955c-0.709812,0.981695 -1.478199,2.040208 -3.178432,4.423146c-0.94186,1.320054 -1.928836,2.717222 -2.953299,4.168678c-1.049763,1.487289 -2.110389,2.994251 -3.172047,4.50023c-1.048995,1.488023 -2.07012,2.942743 -4.002533,5.656483c-0.880874,1.237053 -1.712499,2.393384 -2.50404,3.482593c-0.756068,1.040417 -1.49126,2.040302 -2.214981,3.012941c-0.717045,0.963661 -1.440262,1.928322 -2.949246,3.907419c-0.795436,1.043227 -1.617868,2.112155 -2.457175,3.194041c-0.842513,1.086008 -1.682138,2.159151 -2.511855,3.203284c-0.802695,1.010127 -1.56475,1.978223 -2.988587,3.664567c-0.615632,0.729116 -1.181219,1.363896 -1.691517,1.920109c-0.451908,0.492573 -0.857985,0.915884 -1.214891,1.284674c-0.310756,0.321106 -0.592239,0.583724 -1.000064,1.058716c-0.161895,0.188579 -0.28686,0.364605 -0.380246,0.521864c-0.077226,0.13006 -0.129522,0.243882 -0.161445,0.337656c-0.024002,0.070479 -0.002066,0.166439 -0.037036,0.163723c-0.008213,-0.000656 0,-0.036816 0,-0.078286c0,-0.05268 0,-0.113572 0,-0.179555c0,-0.068043 0,-0.135087 0,-0.253781c0,-0.046903 0,-0.088684 0,-0.130466c0,-0.046903 0,-0.104017 0,-0.176494c0,-0.092962 0.000662,-0.211468 0,-0.545721c-0.00045,-0.224958 -0.00098,-0.490324 -0.023446,-0.793537c-0.02538,-0.342371 -0.074444,-0.723027 -0.164068,-1.134254c-0.098658,-0.452758 -0.217318,-0.955074 -0.680591,-1.994648c-0.263997,-0.592405 -0.612982,-1.192867 -1.003984,-1.821901c-0.417601,-0.671846 -0.889643,-1.359712 -1.402404,-2.070529c-0.538327,-0.74626 -1.112604,-1.51466 -2.368187,-3.099736c-0.662152,-0.835912 -1.369448,-1.701209 -2.14467,-2.598513c-0.836658,-0.968439 -1.77155,-1.995866 -2.82436,-3.08662c-1.160369,-1.202188 -2.456804,-2.514388 -5.592928,-5.399985c-1.815687,-1.670638 -3.827179,-3.429804 -6.00164,-5.2876c-2.305704,-1.969916 -4.75113,-3.99946 -7.322024,-6.070395c-2.656902,-2.140212 -5.389585,-4.330043 -11.127943,-8.595229c-2.911216,-2.163835 -5.863336,-4.253054 -8.802581,-6.308282c-2.894526,-2.023954 -5.737259,-3.968624 -8.490063,-5.847841c-2.638171,-1.800963 -5.15416,-3.476394 -9.618602,-6.603313c-1.941592,-1.359899 -3.678557,-2.624322 -5.23728,-3.791114c-1.413253,-1.057904 -2.68648,-2.045844 -3.846572,-2.962291c-1.072507,-0.847248 -2.063245,-1.66191 -3.937719,-3.137942c-0.902995,-0.711052 -1.795552,-1.390423 -2.664214,-2.047515c-0.837493,-0.633515 -1.641234,-1.233399 -2.398574,-1.808067c-0.70911,-0.53807 -1.374177,-1.019526 -2.460791,-1.942796c-0.445855,-0.378829 -0.813755,-0.73035 -1.10814,-1.052908c-0.247519,-0.271205 -0.438265,-0.516742 -0.569031,-0.739812c-0.105904,-0.180647 -0.193633,-0.341731 -0.203727,-0.594841c-0.003709,-0.092853 0.026002,-0.173184 0.070324,-0.224084c0.044481,-0.051087 0.109679,-0.078879 0.179698,-0.095164c0.075398,-0.017534 0.157405,-0.020469 0.328718,-0.021828c0.086816,-0.000687 0.173618,0 0.260434,0c0.086803,0 0.173618,0 0.260434,0c0.086803,0 0.173618,0 0.347237,0c0.086816,0 0.173618,0 0.260434,0c0.086803,0 0.173618,0 0.260434,0c0.086803,0 0.173618,-0.000172 0.347237,0c0.08667,0.000094 0.172519,-0.000265 0.256526,0.004606c0.081531,0.004731 0.160067,0.013022 0.233081,0.032226c0.069159,0.01819 0.141629,0.034381 0.233809,0.133698c0.045435,0.048964 0.073808,0.118647 0.095068,0.190328c0.021684,0.073102 0.033182,0.150529 0.040361,0.22716c0.006941,0.074164 0.008491,0.144612 0.009259,0.264679c0.000291,0.046216 -0.000927,0.08361 0.003908,0.112042c0.003762,0.022109 0.012981,0.039674 0.02734,0.04759c0.017353,0.009555 0.042825,0.010102 0.113441,0.010914c0.04962,0.000562 0.119229,0.000765 0.22006,0.004606c0.143404,0.005465 0.340613,0.016082 0.602902,0.032226c0.338746,0.020844 0.765062,0.051072 1.926028,0.133698c0.755393,0.053757 1.633021,0.119443 2.634264,0.121254c1.125346,0.00203 2.378718,-0.063968 3.751517,-0.25631c1.507182,-0.211172 3.16712,-0.470339 6.780478,-1.740883c2.036766,-0.716173 4.155301,-1.706939 6.367554,-2.816477c2.314354,-1.16075 4.673984,-2.469171 7.070703,-3.875521c2.441836,-1.432814 4.894891,-2.920806 9.711206,-6.098531c2.376413,-1.567917 4.693562,-3.176164 6.962627,-4.794918c2.23693,-1.595818 4.419961,-3.208015 6.54855,-4.83175c2.093526,-1.596989 4.143857,-3.180801 8.046751,-6.404132c1.891733,-1.562343 3.705645,-3.126013 5.448226,-4.647558c1.66717,-1.455703 3.234252,-2.853996 4.698185,-4.168694c1.352095,-1.214241 2.56794,-2.335489 4.611382,-4.144806c0.788839,-0.698452 1.438487,-1.252619 1.959726,-1.680677c0.399586,-0.328163 0.698129,-0.558977 0.905009,-0.713721c0.127614,-0.095461 0.196362,-0.152777 0.173632,-0.163707c-0.05174,-0.024888 -0.134767,0.001155 -0.231809,0.018408c-0.113838,0.020235 -0.241558,0.058176 -0.372404,0.128936c-0.143059,0.07738 -0.30763,0.17334 -0.553268,0.534807c-0.143139,0.210641 -0.252712,0.489481 -0.351581,0.80734c-0.110765,0.356064 -0.198879,0.768306 -0.273455,1.230963c-0.08255,0.512152 -0.15657,1.081496 -0.243068,2.395757c-0.049117,0.746135 -0.074232,1.555176 -0.091161,2.425079c-0.018121,0.931029 -0.021326,1.923732 -0.013008,2.977639c0.008795,1.115393 0.024744,2.292459 0.104168,4.829705c0.042547,1.359446 0.100539,2.769902 0.173181,4.220874c0.074232,1.482355 0.163564,2.985133 0.274753,4.497138c0.111295,1.513426 0.219146,3.02017 0.564846,5.948454c0.167273,1.416951 0.373279,2.803814 0.610704,4.1733c0.238273,1.374326 0.517583,2.758332 0.837294,4.164073c0.330175,1.451753 0.695612,2.957169 1.590368,6.158564c0.485183,1.735918 1.026636,3.53507 1.588646,5.38737c0.572237,1.885978 1.159999,3.779342 1.744872,5.663634c0.575469,1.85394 1.145693,3.651593 2.164486,7.026265c0.46134,1.528103 0.874489,2.949878 1.248775,4.265388c0.344269,1.209963 0.651158,2.321375 0.928428,3.335264c0.251334,0.919054 0.468493,1.750485 0.861164,3.143391c0.162266,0.575574 0.311949,1.076359 0.450531,1.510303c0.121044,0.379047 0.234379,0.707913 0.34117,0.994592c0.095452,0.256232 0.188918,0.486249 0.365781,0.905923c0.086206,0.204567 0.172439,0.406558 0.2565,0.604724c0.081464,0.19203 0.159458,0.375878 0.233107,0.549484c0.06843,0.161334 0.130873,0.308287 0.233796,0.551186c0.039235,0.092588 0.071397,0.167376 0.095055,0.228706c0.019022,0.049292 0.033063,0.090605 0.040374,0.12739c0.006756,0.033928 0.008822,0.069558 0.009272,0.155525c0.000291,0.055943 -0.000026,0.120145 -0.003921,0.190328c-0.004133,0.07446 -0.011498,0.151482 -0.02734,0.22716c-0.015737,0.075194 -0.029513,0.157196 -0.113441,0.264679c-0.041779,0.053492 -0.101731,0.087357 -0.165366,0.112042c-0.067291,0.026106 -0.141894,0.039346 -0.220073,0.04759c-0.081305,0.008572 -0.165525,0.010227 -0.337964,0.010914c-0.087981,0.000343 -0.182904,0 -0.291708,0c-0.129628,0 -0.287046,0 -0.479169,0c-0.233822,0 -0.516232,-0.000531 -1.254709,0c-0.471248,0.000343 -1.026768,0.001171 -1.681079,0.018408c-0.768255,0.020235 -1.665024,0.060315 -2.704588,0.128936c-1.198201,0.079098 -2.570112,0.179695 -5.886914,0.534807c-1.980337,0.21203 -4.201915,0.48931 -6.69308,0.802734c-2.786953,0.350631 -5.894399,0.753926 -9.349491,1.198737c-3.828292,0.492869 -8.05507,1.043134 -17.813512,2.262044c-5.559097,0.694376 -11.488757,1.418418 -17.680679,2.165693c-6.345817,0.765855 -12.738764,1.526744 -19.0714,2.266993c-6.163456,0.720466 -12.049562,1.415951 -22.568404,2.559464c-4.437499,0.482408 -8.316789,0.878193 -11.677741,1.189525c-2.880286,0.266818 -5.321897,0.468091 -7.365008,0.590922c-1.682416,0.101144 -3.048804,0.212686 -4.974812,0.095507c-0.641872,-0.039049 -1.12883,-0.089512 -1.373779,-0.296234c-0.14953,-0.126188 -0.110712,-0.385465 0.071622,-0.600134c0.259202,-0.305165 0.671597,-0.593701 1.736209,-1.320663c0.637693,-0.435443 1.341677,-0.894369 2.096474,-1.384443c0.796164,-0.51693 1.627948,-1.04838 2.487125,-1.587059c0.874132,-0.548047 1.754555,-1.099904 3.518714,-2.144709c0.858991,-0.508733 1.717148,-0.995825 2.576961,-1.493425c0.877576,-0.507874 1.784373,-1.037138 2.725424,-1.613134c0.997043,-0.610267 2.062543,-1.266078 4.391442,-2.862349c1.310714,-0.898382 2.686083,-1.896892 4.123934,-2.945413c1.482518,-1.08109 2.983289,-2.19286 4.491146,-3.304553c1.493181,-1.100872 2.944106,-2.191861 5.708647,-4.153003c1.257027,-0.89173 2.451413,-1.704597 3.601768,-2.449639c1.11157,-0.719936 2.21771,-1.3972 3.336128,-2.044439c1.138063,-0.658622 2.324713,-1.318664 4.926205,-2.668617c1.435374,-0.744839 2.966638,-1.509929 4.577088,-2.296159c1.670919,-0.81574 3.39575,-1.634945 5.163048,-2.443503c1.787592,-0.817832 3.582415,-1.640566 7.187906,-3.1052c1.759668,-0.71483 3.492871,-1.36107 5.182586,-1.964623c1.632372,-0.583068 3.207335,-1.112676 4.713802,-1.596255c1.42495,-0.457411 2.763242,-0.874555 5.150755,-1.555333c1.029285,-0.293486 1.958508,-0.54227 2.798345,-0.750538c0.75877,-0.188158 1.450766,-0.343683 2.087354,-0.465062c0.58959,-0.112417 1.145693,-0.209329 2.203828,-0.319264c0.520153,-0.054038 1.040398,-0.087295 1.558683,-0.098224c0.515424,-0.010867 1.028225,0.001483 1.535238,0.04912c0.503357,0.047293 1.008025,0.096647 1.970019,0.390195c0.478123,0.145892 0.939131,0.352052 1.385502,0.58018c0.440384,0.225068 0.860568,0.478396 1.260484,0.745932c0.38773,0.259386 0.75575,0.521177 1.405173,1.061448c0.296013,0.246255 0.571349,0.499005 0.833386,0.767432c0.270634,0.277217 0.544831,0.59267 0.833373,0.951623c0.322519,0.401219 0.676034,0.868435 1.516296,2.032838c0.509397,0.705899 1.065368,1.495955 1.670667,2.345263c0.641263,0.899787 1.310754,1.835687 2.006618,2.787311c0.704368,0.963255 1.402643,1.931944 2.8335,3.735515c0.677134,0.853524 1.346558,1.643642 1.993597,2.383641c0.613684,0.701855 1.20542,1.349688 1.767033,1.950821c0.524524,0.561428 1.019271,1.071254 1.88205,1.975537c0.370312,0.388119 0.699215,0.739327 0.992235,1.052923c0.260235,0.278528 0.489607,0.526126 0.695361,0.739796c0.180983,0.187939 0.336348,0.360686 0.627341,0.594841c0.122488,0.098568 0.241426,0.171014 0.351595,0.2241c0.098459,0.047449 0.190428,0.077614 0.273442,0.095164c0.073397,0.01552 0.138887,0.020454 0.243068,0.021828c0.0395,0.000515 0.07292,0 0.10287,0c0.029089,0 0.059899,0 0.095068,0c0.042097,0 0.093757,0 0.236114,0c0.095346,0 0.207197,0 0.334653,0c0.142238,0 0.298358,0 0.467486,0c0.181288,0 0.373861,0 0.789396,0c0.221212,0 0.450266,0 0.686234,0c0.242062,0 0.489316,0 0.740914,0c0.255096,0 0.512761,-0.000172 1.03249,0c0.260421,0.000094 0.520868,-0.000172 0.781289,0.004606c0.260447,0.004778 0.521001,0.013646 0.781289,0.032226c0.26058,0.018596 0.522643,0.036317 1.041736,0.133698c0.261295,0.049011 0.520497,0.117694 0.777368,0.194934c0.255917,0.076959 0.507463,0.164691 0.753949,0.259386c0.24283,0.09329 0.479964,0.18936 0.928296,0.398392c0.213609,0.099598 0.417442,0.202662 0.612029,0.30696c0.187381,0.100441 0.365543,0.202491 0.533876,0.306976c0.161524,0.100269 0.316426,0.197448 0.590305,0.409306c0.127773,0.098833 0.244128,0.201679 0.351581,0.30237c0.100857,0.094524 0.191673,0.187018 0.273455,0.274734c0.074417,0.079832 0.139377,0.153605 0.243068,0.275593c0.039394,0.046341 0.072457,0.084266 0.095055,0.121254c0.020108,0.032913 0.033672,0.070057 0.040374,0.112042c0.007868,0.049167 0.007206,0.110528 0.009272,0.278325c0.001404,0.11376 0.006358,0.258527 0.05468,0.43129c0.062522,0.223506 0.188573,0.493541 0.382842,0.808885c0.245055,0.397799 0.576423,0.872666 1.588037,2.000097c0.656536,0.731708 1.473404,1.539579 2.444167,2.460381c1.126698,1.06874 2.450896,2.260513 3.983273,3.59312c1.739865,1.513051 3.715275,3.200739 8.475042,7.078102c2.773283,2.259139 5.793025,4.657972 8.993976,7.173953c3.318948,2.60874 6.716579,5.243289 10.142503,7.855433c3.383298,2.579652 6.664786,5.097975 12.838693,9.528444c2.731902,1.960423 5.244684,3.676808 7.535593,5.177072c2.054145,1.345191 3.904617,2.494621 5.558911,3.454973c1.443388,0.837911 2.690759,1.560376 4.701642,2.453058c0.737762,0.327507 1.336783,0.538195 1.806096,0.623164c0.34668,0.062766 0.615075,0.053898 0.766983,-0.058332c0.118713,-0.087685 0.164916,-0.252938 0.175936,-0.564832c0.005246,-0.148577 0,-0.289223 0,-0.423624c0,-0.130279 0,-0.258527 0,-0.386776c0,-0.13031 0,-0.264679 0,-0.553902c0,-0.158102 0,-0.323354 0,-0.492698c0,-0.170374 0,-0.338687 0,-0.50191c0,-0.15501 0,-0.298779 0,-0.540256c0,-0.093119 0,-0.171935 0,-0.242539c0,-0.068543 0,-0.141177 0,-0.224084c0,-0.099239 0,-0.221024 0,-0.556619c0,-0.224459 0,-0.485703 0,-0.779735c0,-0.322667 0,-0.669879 0,-1.037544c0,-0.384059 0,-0.780422 0,-1.593539c0,-0.412538 0,-0.844531 0,-1.31537c0,-0.529202 0,-1.136159 0,-1.840325c0,-0.820798 0,-1.777715 0,-4.177531c0,-1.473315 0,-3.109322 0,-4.876264c0,-1.866243 0,-3.799998 0,-5.769571c0,-1.973663 0.000503,-3.919691 0,-7.601995c-0.000238,-1.679491 0.00098,-3.24441 -0.011736,-4.70283c-0.011869,-1.36029 -0.032904,-2.630911 -0.082021,-3.818735c-0.046123,-1.115221 -0.082603,-2.171564 -0.340296,-4.098434c-0.120938,-0.904283 -0.294967,-1.759244 -0.484415,-2.564757c-0.179221,-0.762107 -0.377597,-1.466836 -0.578145,-2.113497c-0.183699,-0.592343 -0.365437,-1.118703 -0.67365,-1.97282c-0.116911,-0.32401 -0.210615,-0.58452 -0.293007,-0.78431c-0.063158,-0.153183 -0.115772,-0.268457 -0.175777,-0.333066c-0.047819,-0.051493 -0.109811,-0.071619 -0.254645,-0.076397c-0.095028,-0.003123 -0.204866,0 -0.326837,0c-0.131535,0 -0.269985,0 -0.412779,0c-0.144543,0 -0.288211,0 -0.562541,0c-0.126157,0 -0.2454,0 -0.359397,0c-0.110553,0 -0.219331,0 -0.328136,0c-0.110553,0 -0.22455,-0.000156 -0.46995,0c-0.134688,0.000094 -0.278966,0.000047 -0.433602,0.004606c-0.166002,0.004903 -0.344216,0.01438 -0.535201,0.032226c-0.205211,0.019173 -0.425946,0.041501 -0.912082,0.133698c-0.269693,0.05115 -0.554725,0.119802 -0.855521,0.194934c-0.316161,0.078957 -0.645648,0.167079 -0.988327,0.259386c-0.354999,0.095617 -0.720568,0.198025 -1.483895,0.398392c-0.395559,0.103829 -0.805132,0.207284 -1.234442,0.30696c-0.452703,0.10511 -0.935316,0.208221 -1.453217,0.306976c-0.556792,0.106171 -1.158621,0.21584 -2.520969,0.409306c-0.767354,0.108966 -1.594978,0.20769 -2.479296,0.316172c-0.939846,0.11529 -1.933817,0.23531 -2.979341,0.371444c-1.09639,0.142754 -2.242931,0.287303 -4.669242,0.676702c-1.280884,0.205567 -2.599943,0.443125 -3.952038,0.715252c-1.385396,0.278825 -2.796278,0.592983 -4.22552,0.954684c-1.451548,0.367337 -2.923866,0.742887 -5.856793,1.740867c-1.481167,0.503986 -2.944477,1.081949 -4.388289,1.691419c-1.426778,0.602288 -2.81424,1.237552 -4.153884,1.894035c-1.296435,0.635311 -2.540467,1.251682 -4.768774,2.553999c-1.009098,0.589766 -1.950162,1.192164 -2.808756,1.878671c-0.858832,0.68671 -1.685635,1.500295 -2.472806,2.468063c-0.857216,1.053876 -1.747336,2.303013 -3.54416,5.544613c-1.074454,1.938361 -2.145889,4.152659 -3.272321,6.543123c-1.185882,2.516621 -2.365087,5.152512 -3.530172,7.860039c-1.169933,2.718768 -2.321666,5.415271 -4.338192,10.666289c-0.932958,2.42942 -1.75494,4.741145 -2.489734,6.922217c-0.685678,2.035243 -1.284778,3.944516 -1.802176,5.725042c-0.475884,1.637631 -0.901088,3.140143 -1.495446,5.771101c-0.250195,1.107555 -0.434503,2.099976 -0.570356,2.982229c-0.119878,0.77858 -0.197687,1.472191 -0.242194,2.088953c-0.039659,0.549624 -0.052084,1.046381 -0.055555,1.920952c-0.00159,0.399079 0,0.777674 0,1.135815c0,0.337656 0,0.654859 0,0.951608c0,0.276264 0,0.532075 0,0.982304c0,0.194419 0,0.368383 0,0.521864c0,0.133026 0,0.245568 0,0.337656c0,0.071634 -0.034732,0.163723 0,0.163723c0.008239,0 0,-0.036816 0,-0.078286c0,-0.05268 0,-0.113572 0,-0.179555c0,-0.068043 -0.000159,-0.135087 0,-0.253781c0.000079,-0.046715 0,-0.087435 0.003894,-0.125844c0.004133,-0.040782 0.013458,-0.087529 0.02734,-0.144299c0.017485,-0.071572 0.042626,-0.161068 0.113441,-0.412007c0.047474,-0.168219 0.102685,-0.363044 0.165366,-0.580195c0.068086,-0.235825 0.141364,-0.485953 0.220073,-0.745916c0.080749,-0.266709 0.161657,-0.536603 0.337991,-1.061464c0.085226,-0.253625 0.177473,-0.506812 0.268236,-0.776644c0.099214,-0.294938 0.205158,-0.629034 0.315128,-1.01606c0.127243,-0.447793 0.269667,-0.97075 0.574091,-2.300265c0.188202,-0.82186 0.384088,-1.759509 0.583364,-2.813385c0.220444,-1.165762 0.439192,-2.449998 0.645886,-3.854052c0.223543,-1.518594 0.45718,-3.155913 0.796337,-6.805242c0.186056,-2.001986 0.323658,-4.124945 0.446636,-6.357417c0.128647,-2.335271 0.229902,-4.769999 0.31383,-7.296721c0.086763,-2.612003 0.162399,-5.304135 0.252314,-10.903675c0.046468,-2.892717 0.074364,-5.82973 0.07553,-8.793238c0.001166,-2.972705 -0.023949,-5.937665 -0.096353,-8.876114c-0.071371,-2.896527 -0.130555,-5.739062 -0.557905,-11.151976c-0.202084,-2.559636 -0.495621,-5.015676 -0.819067,-7.385765c-0.31481,-2.306901 -0.676511,-4.553331 -1.045631,-6.759541c-0.365092,-2.18215 -0.768043,-4.343565 -1.463046,-8.707099c-0.351926,-2.209551 -0.666736,-4.437042 -0.967504,-6.659771c-0.297563,-2.199075 -0.571204,-4.361161 -0.834671,-6.466383c-0.254169,-2.031058 -0.480865,-3.973963 -0.946814,-7.509236c-0.206615,-1.567698 -0.411653,-2.996859 -0.608108,-4.294554c-0.177778,-1.174396 -0.348402,-2.229084 -0.506536,-3.171027c-0.140423,-0.836412 -0.27372,-1.570743 -0.476891,-2.766842c-0.080007,-0.470995 -0.142145,-0.864781 -0.19011,-1.184919c-0.037487,-0.25019 -0.061953,-0.435443 -0.080736,-0.55868c-0.010107,-0.066295 -0.017286,-0.079145 -0.018518,0.03819c-0.001285,0.123128 -0.000344,0.289255 -0.003908,0.500364c-0.004358,0.258231 -0.012756,0.565597 -0.02734,0.923988c-0.016756,0.411789 -0.036957,0.879177 -0.113441,1.986466c-0.044481,0.643961 -0.101877,1.342943 -0.173181,2.090483c-0.075503,0.791461 -0.16526,1.61966 -0.274753,2.477259c-0.112871,0.884033 -0.228127,1.790221 -0.564846,3.618196c-0.169989,0.922801 -0.371795,1.833673 -0.579469,2.730525c-0.203343,0.878131 -0.414236,1.725191 -0.618519,2.537121c-0.193647,0.769633 -0.388419,1.484416 -0.682909,2.747746c-0.12274,0.526548 -0.216854,0.990641 -0.285165,1.398261c-0.059529,0.355268 -0.098883,0.66902 -0.12111,0.947017c-0.019856,0.248441 -0.026188,0.476132 -0.027777,0.894993c-0.000768,0.204474 -0.000185,0.407964 0.003908,0.60933c0.004027,0.198384 0.011286,0.392897 0.02734,0.581725c0.015591,0.183349 0.026095,0.364496 0.113441,0.684883c0.041527,0.152309 0.107824,0.301214 0.212244,0.432836c0.122766,0.154729 0.307882,0.301261 0.548208,0.451244c0.296914,0.1853 0.674498,0.381311 1.699173,0.821329c0.656125,0.28176 1.419346,0.57612 2.276165,0.919382c0.951185,0.381077 1.993796,0.801453 3.119963,1.278538c1.213248,0.513979 2.513339,1.06098 5.310492,2.406671c1.513779,0.728273 3.072091,1.533521 4.665639,2.383641c1.620861,0.864688 3.241617,1.763866 4.845311,2.687541c1.581944,0.911153 3.126427,1.801994 5.97026,3.626377c1.306899,0.83841 2.516571,1.671372 3.646024,2.480335c1.069527,0.766026 2.072054,1.521904 3.021014,2.259311c0.911552,0.708335 1.781882,1.411829 3.460842,2.764125c0.819041,0.659683 1.623087,1.304425 2.407687,1.926261c0.756015,0.599181 1.479471,1.166995 2.165493,1.69601c0.638521,0.492385 1.220772,0.948657 2.226982,1.664486c0.397652,0.2829 0.735695,0.505782 1.020887,0.672268c0.23165,0.135244 0.423906,0.230689 0.583364,0.285476c0.128223,0.044061 0.238326,0.062641 0.421336,0.065498c0.088379,0.001374 0.187328,-0.003451 0.303392,-0.032242c0.147219,-0.036504 0.3315,-0.111527 0.561216,-0.225614c0.29147,-0.144752 0.650098,-0.341357 1.595005,-0.935932c0.615897,-0.387541 1.326133,-0.861971 2.130338,-1.433563c0.914149,-0.649738 1.927511,-1.411299 3.036618,-2.299219c1.229223,-0.984084 2.578616,-2.080647 5.539678,-4.794231c1.67578,-1.535738 3.43125,-3.248001 5.259414,-5.114166c1.924041,-1.964046 3.892245,-4.072234 5.876635,-6.329781c2.046436,-2.328135 4.145168,-4.727624 8.106929,-10.04414c2.019361,-2.709899 3.930924,-5.546767 5.778984,-8.415658c1.82329,-2.83042 3.537299,-5.658856 5.138317,-8.443279c1.533251,-2.666588 2.976136,-5.20093 5.287337,-9.915907c0.994977,-2.029825 1.815236,-3.89713 2.464964,-5.613c0.582304,-1.53783 1.028331,-2.965398 1.316489,-4.296084c0.264209,-1.220034 0.468387,-2.391869 0.414368,-4.586853c-0.02636,-1.071363 -0.17636,-2.135746 -0.458346,-3.144937c-0.283496,-1.014624 -0.720966,-1.996428 -1.333418,-2.859445c-0.64533,-0.909358 -1.455707,-1.846726 -3.706215,-3.034253c-1.306184,-0.68924 -2.843223,-1.114097 -4.495054,-1.459653c-1.749668,-0.36601 -3.605517,-0.573201 -5.526352,-0.640042c-1.965184,-0.068387 -3.97461,-0.103673 -7.919442,0.564832c-1.949076,0.330302 -3.878257,0.900833 -5.82063,1.608543c-2.029242,0.739359 -4.136134,1.689046 -6.367567,2.787311c-2.416906,1.189557 -5.018174,2.57884 -10.961252,5.836568c-3.403009,1.865369 -7.059338,3.893523 -10.9186,6.071925c-4.029131,2.274285 -8.17059,4.650993 -12.363975,7.140181c-4.228858,2.510235 -8.46267,4.993958 -16.505566,10.322465c-3.84485,2.547254 -7.473918,5.14558 -10.910771,7.708089c-3.277077,2.443394 -6.337644,4.847145 -9.184112,7.173953c-2.661511,2.175623 -5.109573,4.225308 -9.275988,7.970363c-1.764609,1.586153 -3.301847,3.038266 -4.646101,4.35134c-1.192121,1.164466 -2.231539,2.229021 -3.146005,3.200193c-0.825306,0.876476 -1.560723,1.703848 -2.914514,3.192511c-0.64374,0.707882 -1.275824,1.387301 -1.886832,2.038303c-0.582384,0.620494 -1.134102,1.201111 -1.644625,1.743599c-0.466625,0.495836 -0.894345,0.92775 -1.532496,1.6754c-0.231716,0.271471 -0.40246,0.489653 -0.496111,0.672268c-0.063701,0.124205 -0.07863,0.235794 -0.035169,0.285476c0.050362,0.057567 0.15155,0.061392 0.386604,0.065498c0.134396,0.002342 0.276634,0 0.4258,0c0.155246,0 0.315697,0 0.480494,0c0.168267,0 0.339143,0.000172 0.685227,0c0.173327,-0.000094 0.344958,0.000265 0.513053,-0.004606c0.162955,-0.004715 0.319208,-0.012881 0.466174,-0.032242c0.137244,-0.01808 0.270329,-0.024935 0.467618,-0.133698c0.083213,-0.045872 0.146861,-0.117351 0.194017,-0.194934c0.046799,-0.07699 0.078563,-0.166876 0.108076,-0.259386c0.03044,-0.095429 0.050495,-0.199649 0.131959,-0.398377c0.043037,-0.105 0.100698,-0.205613 0.161458,-0.306976c0.061926,-0.103314 0.128462,-0.204161 0.192719,-0.306976c0.063648,-0.101846 0.132012,-0.198587 0.22455,-0.409291c0.043726,-0.099583 0.073199,-0.202444 0.095068,-0.30237c0.020863,-0.09532 0.031539,-0.187939 0.040361,-0.27475l0.005351,-0.080659l0.002755,-0.073508" fill="none" id="svg_7" stroke="#C7332C"/>
  <path stroke-width="4" d="m268.312531,222.12735c0.818817,0 1.779999,0 2.6875,0c0.821655,0 1.3125,-0.000412 2.479156,0c0.684998,0.000244 1.440063,0.000214 2.264984,0.013489c0.895081,0.014404 1.860352,0.042053 2.89502,0.094513c1.105377,0.056046 2.28302,0.118134 4.839996,0.391998c1.383484,0.148178 2.814514,0.346634 4.274994,0.567001c1.472931,0.222244 2.934692,0.467194 4.36499,0.728989c1.383026,0.253143 2.700378,0.491867 5.026672,1.037338c0.989807,0.232101 1.857086,0.469254 2.610016,0.709503c0.660095,0.210617 1.228943,0.423798 1.709991,0.6465c0.421844,0.195297 0.792145,0.383743 1.34668,0.810669c0.244934,0.188583 0.449219,0.396088 0.646484,0.586502c0.18808,0.181564 0.367706,0.359573 0.565491,0.505493c0.19696,0.145325 0.413666,0.29921 0.954681,0.408005c0.314636,0.063278 1.058258,0.058472 1.875,-0.083344c0.86911,-0.150909 2.134094,-0.562225 2.889008,-0.900665c0.717194,-0.321533 1.375122,-0.708649 2.052002,-1.031998c1.025604,-0.489929 1.760986,-0.722336 2.475647,-0.942337l0.987,-0.25499" fill="none" id="svg_8" stroke="#C7332C"/>
 </g>
</svg>