<svg width="640" height="480" xmlns="http://www.w3.org/2000/svg" xmlns:svg="http://www.w3.org/2000/svg">
 <!-- Created with SVG-edit - https://github.com/SVG-Edit/svgedit-->
 <g class="layer">
  <title>Layer 1</title>
  <line fill="none" id="svg_1" stroke="#000000" stroke-width="5" x1="445.31252" x2="266.31252" y1="235.27549" y2="235.27549"/>
  <path d="m326.31253,176.2755c-1.64285,2.04816 -1.5965,2.97382 -2.05719,3.64732c-0.4646,0.67923 -1.77951,0.23373 -2.422,0.8735c-0.64413,0.64139 -0.73679,1.58379 -1.16748,2.15117c-0.66592,0.87723 -1.15973,1.58257 -1.52802,2.04134c-0.76587,0.95406 -1.57953,1.23608 -2.47351,1.29115c-0.78519,0.04836 -1.33554,0.68756 -1.92114,1.47951c-0.40765,0.55132 -1.26401,1.34932 -1.80536,1.89067c-0.50931,0.50932 -1.31009,1.25987 -1.79999,1.87199c-0.707,0.88338 -0.94131,1.43733 -1.32532,2.25334c-0.38397,0.81599 -0.78946,1.60336 -1.32535,2.25333c-0.65329,0.79236 -1.33725,1.32205 -1.87018,1.99933c-0.66812,0.84909 -1.03909,1.50311 -1.69382,2.19667c-0.55902,0.59218 -0.5898,1.49852 -1.18134,2.16667c-0.54773,0.61868 -1.44969,1.02701 -2.21867,1.70934c-0.56908,0.50494 -1.1882,1.15413 -1.79999,1.76399c-0.71405,0.71179 -1.28253,1.23196 -2.06334,1.71066c-0.6834,0.41898 -1.49716,1.15947 -2.34734,1.53334c-0.70883,0.31172 -1.70775,-0.05823 -2.43066,0.252c-0.79343,0.34048 -1.21872,1.25566 -1.87733,1.75067c-0.78812,0.59236 -1.69392,1.16113 -2.28799,1.56267c-0.57388,0.38789 -1.4599,0.82851 -2.15067,1.71733c-0.44707,0.57524 -0.95285,1.54626 -1.43867,2.05867c-0.77713,0.81966 -1.31621,1.32379 -1.98134,1.99199c-0.48712,0.48938 -1.21274,1.21339 -1.812,2.03317c-0.41908,0.5733 -0.84947,1.37869 -1.6785,2.0475c-0.52165,0.42084 -1.35878,0.90041 -1.93834,1.40533c-0.7693,0.67024 -1.48672,1.24255 -1.95782,1.93666c-0.56458,0.83182 -0.26358,1.90657 -0.73201,2.60933c-0.53012,0.79532 -1.44095,0.61763 -2.31467,0.83734c-0.87215,0.21931 -1.71596,0.886 -2.37917,0.94316c-1.03188,0.08893 -1.95241,-0.37157 -2.73549,0.10617c-0.80359,0.49025 -1.14478,1.34766 -1.71068,1.87866c-0.50775,0.47646 -0.57466,1.336 -0.57466,2.23466c0,0.854 -0.02538,1.80174 0,2.60133c0.02859,0.90137 0.61813,1.51035 0.91467,2.40001c0.28587,0.85764 -0.29861,2.00446 0.30682,2.67867c0.5546,0.6176 1.48615,0.74994 2.3425,1.11067c0.77664,0.32716 1.35139,0.8199 1.86801,1.528c0.57292,0.78528 0.48914,1.82283 0.99333,2.45732c0.48393,0.60898 0.46585,1.53314 0.74133,2.35867c0.24185,0.72476 0.38002,1.84456 1,2.5c0.61676,0.65204 1.52505,0.77061 1.748,1.64934c0.19957,0.78661 -0.16757,1.88974 0.252,2.68399c0.35529,0.67253 1.1432,1.38777 1.93317,1.71184c0.86855,0.35631 1.3531,0.80003 1.87933,1.60066c0.38301,0.58273 1.40233,0.29626 2,1.0625c0.50215,0.64377 0.58748,1.66151 1.12083,2.437c0.46321,0.67351 1.02588,1.32826 1.46399,2.16c0.42575,0.80829 0.37524,1.72144 0.47768,2.38217c0.18114,1.16841 0.7316,1.59221 1.39034,2.2765c0.61763,0.6416 0.83366,1.63884 1.668,2.08133c0.83481,0.44275 1.38075,0.77994 1.92082,1.62134c0.48026,0.7482 1.17842,1.14349 2.17917,1.37866c0.78769,0.1851 1.82269,0.23009 2.60001,0.56799c0.62148,0.27016 1.42117,0.85213 2.01067,1.41068c0.67142,0.63618 1.35982,1.4729 1.87466,2.112c0.55481,0.68869 0.82901,1.05672 1.41917,1.7825c0.88583,1.08942 1.49046,1.76233 1.7865,2.082c0.56287,0.60782 1.35243,1.38037 2.14366,2.20349c0.51636,0.53717 0.89372,0.98999 1.632,1.96268c0.32266,0.42511 1.04752,1.41672 1.44534,1.952c0.40784,0.54874 0.81506,1.10191 1.2345,1.632c1.13324,1.43227 1.77255,2.13089 2.33481,2.59999c0.62335,0.52007 1.49487,0.95947 2.01419,1.57317c0.69955,0.82668 0.84799,1.50665 1.62598,2.22134c0.63339,0.58185 1.68228,1.01416 2.27402,1.3215c0.75223,0.39072 1.44385,1.01773 2.20316,1.41464c0.78101,0.40823 1.85852,0.28534 2.60583,0.28534c0.99417,0 1.7699,-0.13525 2.71417,0.00534c0.77243,0.11502 1.65021,0.87454 2.23932,1.40533c0.64746,0.58337 0.966,0.888 2.14203,1.92267l0.62399,0.43799" fill="none" id="svg_3" stroke="#000000" stroke-width="5"/>
 </g>
</svg>